<svg width="45" height="45" fill="none" xmlns="http://www.w3.org/2000/svg"><path d="M44.062 22.151a21.931 21.931 0 01-6.444 15.557 21.931 21.931 0 01-15.556 6.443 21.931 21.931 0 01-15.556-6.443A21.931 21.931 0 01.062 22.15 21.931 21.931 0 016.506 6.595 21.931 21.931 0 0122.062.15a21.931 21.931 0 0115.556 6.444 21.931 21.931 0 016.444 15.556z" fill="#fff"/><g clip-path="url(#clip0)"><path d="M25.393 15.472h1.826v-3.18a23.554 23.554 0 00-2.66-.14c-2.633 0-4.436 1.655-4.436 4.698v2.801h-2.905v3.555h2.905v8.945h3.561v-8.944h2.788l.442-3.555h-3.23v-2.45c0-1.027.277-1.73 1.709-1.73z" fill="#AFB1B8"/></g><defs><clipPath id="clip0"><path fill="#fff" transform="translate(12.062 12.151)" d="M0 0h20v20H0z"/></clipPath></defs></svg>