<svg width="45" height="45" fill="none" xmlns="http://www.w3.org/2000/svg"><path d="M44.062 22.151a21.931 21.931 0 01-6.444 15.557 21.931 21.931 0 01-15.556 6.443 21.931 21.931 0 01-15.556-6.443A21.931 21.931 0 01.062 22.15 21.931 21.931 0 016.506 6.595 21.931 21.931 0 0122.062.15a21.931 21.931 0 0115.556 6.444 21.931 21.931 0 016.444 15.556z" fill="#fff"/><g clip-path="url(#clip0)" fill="#AFB1B8"><path d="M32.042 18.031c-.046-1.062-.218-1.793-.464-2.426a4.88 4.88 0 00-1.157-1.774 4.92 4.92 0 00-1.77-1.152c-.637-.247-1.363-.418-2.426-.465-1.07-.051-1.41-.063-4.126-.063-2.715 0-3.055.012-4.122.059-1.063.047-1.793.219-2.426.465a4.88 4.88 0 00-1.774 1.156 4.925 4.925 0 00-1.152 1.77c-.247.637-.418 1.364-.465 2.426-.051 1.07-.063 1.41-.063 4.126s.012 3.056.059 4.122c.047 1.063.219 1.793.465 2.426a4.932 4.932 0 001.156 1.774c.5.508 1.106.903 1.77 1.153.637.246 1.364.418 2.426.465 1.067.047 1.407.058 4.122.058 2.716 0 3.056-.011 4.122-.058 1.063-.047 1.793-.22 2.426-.465A5.116 5.116 0 0031.57 28.7c.246-.637.418-1.363.465-2.426.047-1.066.058-1.406.058-4.122 0-2.715-.004-3.055-.05-4.122zm-1.8 8.166c-.044.977-.208 1.504-.344 1.856a3.318 3.318 0 01-1.9 1.899c-.35.136-.882.3-1.855.343-1.055.047-1.371.059-4.04.059-2.668 0-2.989-.012-4.04-.059-.977-.043-1.504-.207-1.856-.343a3.078 3.078 0 01-1.148-.747 3.111 3.111 0 01-.747-1.148c-.136-.352-.3-.883-.343-1.856-.047-1.055-.059-1.372-.059-4.04 0-2.669.012-2.989.059-4.04.043-.977.207-1.504.343-1.856a3.04 3.04 0 01.75-1.148 3.104 3.104 0 011.15-.747c.35-.136.882-.3 1.855-.343 1.055-.047 1.372-.059 4.04-.059 2.672 0 2.989.012 4.04.059.977.043 1.504.207 1.856.344.433.16.828.413 1.148.746.332.324.586.715.747 1.148.136.352.3.883.343 1.856.047 1.055.059 1.372.059 4.04s-.012 2.981-.059 4.036z"/><path d="M22.1 17.015a5.139 5.139 0 00-5.139 5.138 5.139 5.139 0 105.138-5.138zm0 8.47a3.333 3.333 0 110-6.666 3.333 3.333 0 010 6.667zM28.64 16.812a1.2 1.2 0 11-2.4 0 1.2 1.2 0 012.4 0z"/></g><defs><clipPath id="clip0"><path fill="#fff" transform="translate(12.062 12.151)" d="M0 0h20v20H0z"/></clipPath></defs></svg>