<svg width="45" height="45" fill="none" xmlns="http://www.w3.org/2000/svg"><path d="M44.062 22.151a21.931 21.931 0 01-6.444 15.557 21.931 21.931 0 01-15.556 6.443 21.931 21.931 0 01-15.556-6.443A21.931 21.931 0 01.062 22.15 21.931 21.931 0 016.506 6.595 21.931 21.931 0 0122.062.15a21.931 21.931 0 0115.556 6.444 21.931 21.931 0 016.444 15.556z" fill="#fff"/><g clip-path="url(#clip0)" fill="#AFB1B8"><path d="M32.057 32.151h.005v-7.336c0-3.588-.772-6.352-4.967-6.352-2.017 0-3.37 1.107-3.923 2.156h-.058v-1.821h-3.978v13.353h4.142v-6.612c0-1.741.33-3.424 2.486-3.424 2.124 0 2.156 1.986 2.156 3.536v6.5h4.137zM12.392 18.799h4.147V32.15h-4.147V18.8zM14.464 12.151a2.402 2.402 0 00-2.402 2.402c0 1.326 1.076 2.424 2.402 2.424 1.325 0 2.401-1.098 2.401-2.424a2.403 2.403 0 00-2.401-2.402z"/></g><defs><clipPath id="clip0"><path fill="#fff" transform="translate(12.062 12.151)" d="M0 0h20v20H0z"/></clipPath></defs></svg>