<svg width="42" height="43" fill="none" xmlns="http://www.w3.org/2000/svg"><path d="M6.408 41.946a.114.114 0 01.08.034l.205.216c-.16.174-.357.314-.579.41-.26.103-.539.153-.82.146a2.01 2.01 0 01-.772-.137 1.672 1.672 0 01-.957-.985 2.164 2.164 0 01-.13-.768 2.017 2.017 0 01.14-.77c.09-.222.226-.425.4-.597.175-.169.385-.301.617-.39.253-.093.523-.14.795-.137a1.97 1.97 0 01.738.125c.203.084.39.201.553.345l-.173.23a.175.175 0 01-.043.043.11.11 0 01-.07.017.156.156 0 01-.074-.025l-.093-.061-.129-.079a1.4 1.4 0 00-.406-.137 1.626 1.626 0 00-.306-.024 1.528 1.528 0 00-.571.103 1.292 1.292 0 00-.448.289c-.128.133-.227.29-.29.46-.073.196-.108.402-.106.608-.003.21.033.42.106.618.063.17.16.325.285.459.118.124.264.221.427.284.168.066.348.1.53.098.105.001.21-.005.314-.02.17-.02.332-.076.476-.164.072-.045.14-.096.203-.152a.154.154 0 01.098-.04zM12.35 40.862c.002.26-.045.518-.14.762a1.653 1.653 0 01-.387.592 1.755 1.755 0 01-.608.389 2.296 2.296 0 01-1.564 0 1.777 1.777 0 01-.604-.39 1.742 1.742 0 01-.391-.598 2.166 2.166 0 010-1.527c.087-.223.22-.427.39-.6a1.78 1.78 0 01.605-.375 2.258 2.258 0 011.564 0c.228.088.435.22.607.39.17.17.301.37.388.59.095.245.143.505.14.767zm-.541 0a1.759 1.759 0 00-.098-.613 1.21 1.21 0 00-.71-.748 1.658 1.658 0 00-1.137 0 1.209 1.209 0 00-.712.748c-.13.4-.13.827 0 1.226a1.204 1.204 0 00.712.745c.367.13.77.13 1.137 0 .166-.064.314-.162.435-.287.123-.133.217-.29.275-.458.07-.198.102-.405.098-.613zM16.403 41.505l.054.137c.02-.05.038-.093.059-.138.02-.046.042-.09.067-.134l1.314-2.277c.026-.039.05-.064.075-.07a.322.322 0 01.108-.013h.388v3.703h-.46V39.99v-.115a1.083 1.083 0 010-.127l-1.322 2.308a.201.201 0 01-.078.084.215.215 0 01-.113.031h-.074c-.04 0-.08-.01-.113-.03a.2.2 0 01-.078-.085l-1.36-2.323v2.972h-.445V39.01h.388a.322.322 0 01.108.012.15.15 0 01.072.071l1.343 2.28a.806.806 0 01.067.132zM21.349 41.32v1.387h-.515V39.01h1.148c.216-.004.432.023.64.08.167.046.321.124.453.231.114.1.202.224.257.363.06.15.09.311.087.473.003.162-.03.323-.095.473a1.012 1.012 0 01-.277.37 1.27 1.27 0 01-.456.245c-.2.06-.41.09-.62.085l-.622-.01zm0-.397h.622c.136.002.27-.017.399-.056a.845.845 0 00.288-.16.651.651 0 00.175-.244.769.769 0 00.062-.311.68.68 0 00-.232-.554 1.033 1.033 0 00-.692-.199h-.622v1.524zM28.263 42.712h-.406a.18.18 0 01-.113-.034.227.227 0 01-.067-.086l-.35-.894H25.57l-.363.894a.199.199 0 01-.064.084.18.18 0 01-.116.036h-.406l1.543-3.703h.535l1.564 3.703zm-2.546-1.374h1.45l-.612-1.508a2.624 2.624 0 01-.115-.348l-.06.194a1.852 1.852 0 01-.056.157l-.607 1.505zM30.485 39.027c.031.016.058.038.078.066l2.25 2.791v-.13V39.01h.46v3.702h-.257a.23.23 0 01-.105-.022.286.286 0 01-.082-.068l-2.248-2.79c.002.043.002.086 0 .128v2.753h-.46V39.01h.272c.032-.001.063.005.092.017zM37.065 41.24v1.47h-.515v-1.47l-1.422-2.23h.46c.04-.003.08.009.111.032a.315.315 0 01.07.083l.89 1.438c.035.062.066.118.092.172.026.054.046.105.064.157l.067-.16c.025-.058.054-.114.088-.169l.877-1.448a.379.379 0 01.067-.078.162.162 0 01.11-.037h.466l-1.425 2.24zM16.148 32.795c.224.027.45.05.68.07 3.47-1.48 6.406-3.901 8.44-6.961 2.035-3.06 3.078-6.624 2.998-10.245l-3.825-3.645a20.219 20.219 0 01-1.05 11.512c-1.465 3.67-3.973 6.88-7.243 9.27z" fill="#AFB1B8"/><path d="M14.782 32.626l.103.02c3.494-2.382 6.158-5.707 7.648-9.546a19.54 19.54 0 00.706-11.99l-5.447-5.19a24.08 24.08 0 012.557 13.769c-.532 4.727-2.463 9.214-5.567 12.937zM33.258 19.937c-.926 3.98-3.174 7.568-6.41 10.234a20.212 20.212 0 01-3.045 2.083 18.189 18.189 0 007.08-3.814 17.083 17.083 0 004.584-6.4l-2.21-2.103z" fill="#AFB1B8"/><path d="M32.391 19.351l-3.145-2.997a18.473 18.473 0 01-2.953 9.671c-1.873 2.915-4.532 5.298-7.699 6.903h.016c.706 0 1.41-.04 2.111-.12a19.337 19.337 0 007.611-5.33 18.092 18.092 0 004.06-8.127zM15.238 3.732L11.485.152C8.13 1.385 5.245 3.557 3.207 6.38 1.169 9.204.072 12.548.062 15.975c.013 3.786 1.35 7.46 3.801 10.44 2.451 2.981 5.875 5.098 9.731 6.015 3.442-3.995 5.457-8.932 5.753-14.093.295-5.16-1.144-10.277-4.11-14.605zM41.062 18.8c-.014-4.492-1.893-8.796-5.227-11.973-3.334-3.177-7.852-4.967-12.567-4.98-2.18-.002-4.34.381-6.372 1.13l22.977 21.89a16.072 16.072 0 001.189-6.067z" fill="#AFB1B8"/></svg>