<svg width="45" height="50" fill="none" xmlns="http://www.w3.org/2000/svg"><path d="M6.062.151L13.37 7.07h20.384v19.298l7.308 6.918V.151h-35z" fill="#AFB1B8"/><path d="M.062 6.778v32.187h34V26.171L13.585 6.786.062 6.778zm27.523 27.479H5.442V12.609h1.565v20.182h20.578v1.466zM9.853 44.935l.818-1.685h.684l-1.192 2.246v1.31h-.62v-1.31L8.349 43.25h.686l.818 1.685zm3.51 1.042h-1.376l-.288.828h-.642l1.342-3.555h.555l1.345 3.555h-.645l-.29-.828zm-1.203-.498h1.03l-.515-1.474-.515 1.474zm3.638.367c0-.165.045-.315.134-.452.09-.138.266-.302.53-.49a2.268 2.268 0 01-.29-.445.877.877 0 01-.081-.354c0-.278.084-.498.254-.66.169-.162.397-.243.683-.243.26 0 .47.076.635.229.166.151.25.34.25.564a.785.785 0 01-.113.41 1.34 1.34 0 01-.369.371l-.242.176.686.81c.1-.195.15-.412.15-.651h.515c0 .438-.103.796-.308 1.076l.522.618h-.688l-.2-.237a1.47 1.47 0 01-.909.286c-.351 0-.633-.093-.844-.278a.932.932 0 01-.315-.73zm1.177.534c.2 0 .387-.067.561-.2l-.776-.916-.076.054c-.195.148-.293.318-.293.508 0 .164.053.298.159.4a.584.584 0 00.425.154zm-.328-2.29c0 .137.084.309.252.515l.27-.185.077-.061a.44.44 0 00.151-.345.312.312 0 00-.105-.236.37.37 0 00-.266-.1.348.348 0 00-.276.117.432.432 0 00-.102.295zm6.458 1.558c-.036.38-.176.675-.42.888-.244.212-.569.318-.974.318-.283 0-.533-.067-.75-.2a1.333 1.333 0 01-.498-.574 2.066 2.066 0 01-.183-.862v-.332c0-.335.06-.63.178-.886.12-.256.29-.453.51-.59.224-.14.48-.208.772-.208.393 0 .708.106.948.32.239.213.378.514.417.903h-.615c-.03-.256-.104-.44-.225-.552-.119-.114-.294-.171-.525-.171-.268 0-.475.099-.62.295-.143.196-.216.483-.22.862v.315c0 .384.069.677.206.88.138.2.34.302.605.302.242 0 .425-.055.547-.164.122-.109.2-.29.232-.544h.615zm3.391-.528c0 .349-.06.655-.18.919-.121.261-.293.463-.518.605-.223.14-.48.21-.772.21-.288 0-.545-.07-.771-.21a1.406 1.406 0 01-.523-.603 2.125 2.125 0 01-.185-.901v-.2c0-.347.06-.653.183-.918.124-.265.297-.468.52-.608.225-.142.482-.212.771-.212.29 0 .546.07.77.21.224.138.398.338.52.6.122.26.183.564.185.91v.199zm-.618-.185c0-.394-.075-.696-.224-.906a.728.728 0 00-.633-.315.731.731 0 00-.627.315c-.15.208-.226.504-.23.886v.206c0 .39.076.692.228.905.153.213.364.32.634.32.274 0 .484-.104.63-.312.148-.209.222-.513.222-.913v-.186z" fill="#AFB1B8"/></svg>