<svg width="80" height="43" fill="none" xmlns="http://www.w3.org/2000/svg"><path d="M12.464 12.982h-.003c-2.262 0-4.096 1.787-4.096 3.992v.002c0 2.205 1.834 3.992 4.096 3.992h.003c2.262 0 4.097-1.787 4.097-3.992v-.002c0-2.205-1.835-3.992-4.097-3.992zM42.699 11.706c-.007-3.062-1.258-5.997-3.48-8.163C37 1.378 33.988.158 30.846.151c-3.143.006-6.156 1.225-8.379 3.39-2.223 2.166-3.474 5.102-3.48 8.165V28.59s23.71-2.573 23.713-16.883v-.002zM.062 34.133a7.96 7.96 0 002.422 5.68 8.384 8.384 0 005.827 2.362 8.384 8.384 0 005.826-2.361 7.96 7.96 0 002.424-5.678v-11.75S.062 24.18.062 34.134zm8.25 2.106a2.2 2.2 0 01-1.2-.355 2.118 2.118 0 01-.797-.945 2.055 2.055 0 01-.122-1.216 2.09 2.09 0 01.59-1.078 2.179 2.179 0 011.107-.576c.419-.081.853-.04 1.248.12.395.159.732.429.97.775a2.068 2.068 0 01.201 1.978c-.108.256-.267.489-.467.685-.201.197-.44.352-.702.459a2.209 2.209 0 01-.829.16v-.007zM25.151 34.932h-1.687v1.744h-.879V32.41h2.777v.712h-1.898v1.102h1.687v.709zm4.225-.293c0 .42-.074.789-.223 1.105-.148.316-.361.56-.638.732a1.755 1.755 0 01-.95.258c-.353 0-.669-.085-.946-.255a1.696 1.696 0 01-.644-.726 2.51 2.51 0 01-.232-1.09v-.211c0-.42.075-.789.226-1.107.152-.32.366-.566.641-.736.278-.172.594-.258.95-.258.355 0 .67.086.946.258.277.17.491.415.642.736.152.318.228.686.228 1.104v.19zm-.89-.193c0-.447-.08-.787-.24-1.02a.783.783 0 00-.686-.348.782.782 0 00-.683.346c-.16.228-.241.564-.243 1.008v.207c0 .436.08.774.24 1.014.16.24.39.36.691.36a.775.775 0 00.68-.345c.158-.233.238-.57.24-1.014v-.208zm3.74 1.11a.447.447 0 00-.175-.38c-.117-.09-.328-.184-.633-.282a4.565 4.565 0 01-.724-.293c-.484-.261-.726-.614-.726-1.057 0-.23.064-.436.193-.615.131-.182.317-.324.56-.425.244-.102.517-.153.82-.153.305 0 .576.056.814.167.239.11.423.265.554.466.133.201.2.43.2.686h-.88c0-.196-.061-.347-.184-.454-.123-.11-.296-.164-.519-.164-.215 0-.381.045-.5.137a.426.426 0 00-.18.358c0 .138.07.255.209.348.14.094.346.182.618.264.5.15.864.337 1.093.56.228.222.342.5.342.832 0 .369-.14.659-.418.87-.28.209-.656.313-1.128.313-.329 0-.627-.06-.897-.178a1.438 1.438 0 01-.618-.496 1.27 1.27 0 01-.211-.726h.882c0 .47.281.706.843.706.21 0 .373-.042.49-.126a.418.418 0 00.176-.358zm4.691-2.434H35.61v3.554h-.879v-3.554h-1.289v-.712h3.475v.712zm3.07 1.705H38.3v1.143h1.98v.706h-2.86V32.41h2.854v.712H38.3v1.017h1.687v.688zm2.388.287h-.7v1.562h-.88V32.41h1.586c.504 0 .892.112 1.166.337.273.225.41.542.41.952 0 .291-.063.534-.19.73a1.284 1.284 0 01-.572.462l.923 1.744v.04h-.943l-.8-1.56zm-.7-.712h.709c.22 0 .391-.055.513-.167a.607.607 0 00.181-.466c0-.2-.058-.359-.173-.474-.113-.115-.288-.173-.524-.173h-.706v1.28zm5.326.77v1.504h-.879V32.41h1.664c.32 0 .602.059.844.176.244.117.431.284.562.5.131.216.197.46.197.736 0 .418-.144.748-.431.99-.285.24-.68.36-1.186.36H47zm0-.711h.785c.233 0 .41-.055.53-.164.123-.11.185-.266.185-.469a.703.703 0 00-.185-.507c-.123-.129-.293-.195-.51-.2h-.805v1.34zm5.56.366h-1.687v1.143h1.98v.706h-2.859V32.41h2.854v.712h-1.975v1.017h1.688v.688zm4.079-1.705h-1.307v3.554h-.879v-3.554h-1.289v-.712h3.475v.712zm3.07 1.705h-1.688v1.143h1.98v.706h-2.858V32.41h2.853v.712h-1.974v1.017h1.687v.688zm2.388.287h-.7v1.562h-.88V32.41h1.585c.504 0 .893.112 1.166.337.274.225.41.542.41.952 0 .291-.063.534-.19.73a1.284 1.284 0 01-.571.462l.923 1.744v.04h-.944l-.8-1.56zm-.7-.712h.708c.221 0 .392-.055.513-.167a.607.607 0 00.182-.466c0-.2-.058-.359-.173-.474-.113-.115-.288-.173-.525-.173h-.706v1.28zm5.164 1.154a.447.447 0 00-.175-.38c-.118-.09-.328-.184-.633-.282a4.56 4.56 0 01-.724-.293c-.484-.261-.726-.614-.726-1.057 0-.23.064-.436.193-.615.13-.182.317-.324.56-.425.244-.102.517-.153.82-.153.305 0 .576.056.814.167.239.11.423.265.554.466.133.201.2.43.2.686h-.88c0-.196-.061-.347-.184-.454-.123-.11-.296-.164-.519-.164-.215 0-.381.045-.5.137a.426.426 0 00-.18.358c0 .138.07.255.209.348.14.094.346.182.618.264.5.15.864.337 1.093.56.228.222.342.5.342.832 0 .369-.14.659-.419.87-.279.209-.655.313-1.128.313-.328 0-.627-.06-.896-.178a1.438 1.438 0 01-.618-.496 1.27 1.27 0 01-.211-.726h.882c0 .47.281.706.843.706.21 0 .372-.042.49-.126a.418.418 0 00.175-.358z" fill="#AFB1B8"/></svg>