<svg width="41" height="53" fill="none" xmlns="http://www.w3.org/2000/svg"><g clip-path="url(#clip0)" fill="#AFB1B8"><path d="M17.039 3.086h.136c.253 0 .527.025.797.048 1.193.084 2.377.263 3.542.534V.805a21.09 21.09 0 00-3.655-.583 29.24 29.24 0 00-1.478-.07h-.427c-2.475.009-4.94.326-7.337.945-2.73.681-5.35 1.747-7.784 3.166V32.66a31.634 31.634 0 017.42-2.891c2.04-.521 4.126-.841 6.228-.957h.084c.351-.017.703-.028 1.065-.03v-2.91a34.329 34.329 0 00-8.095 1.076c-.98.255-1.925.53-2.813.834l-1.012.344V5.985l.432-.209a28.275 28.275 0 0110.516-2.683.63.63 0 01.091 0c.403-.02.807-.03 1.205-.03h.455c.21.005.42.01.63.023z"/><path d="M24.173 6.084a25.92 25.92 0 01-4.235-.343c-.45-.077-.893-.168-1.323-.267v28.07c1.82.452 3.69.672 5.566.657a29.943 29.943 0 007.336-.944 29.817 29.817 0 007.786-3.165V2.2a31.775 31.775 0 01-7.417 2.894c-2.52.647-5.111.98-7.713.989zm11.224.486l1.012-.341v22.149l-.432.208a27.76 27.76 0 01-5.174 1.859c-2.163.56-4.386.847-6.62.857-.668 0-1.33-.028-1.973-.084l-.693-.061V8.38l.807.053c.587.039 1.194.056 1.854.056a34.264 34.264 0 008.406-1.078c.944-.249 1.883-.529 2.813-.841zM2.8 42.364a1.493 1.493 0 00-1.126-.456 1.674 1.674 0 00-.65.123 1.464 1.464 0 00-.832.842c-.08.199-.12.412-.117.627v3.794c-.01.268.042.534.149.779.09.194.219.367.38.508.151.128.33.22.52.27.185.052.376.078.567.078.212.002.42-.043.612-.132a1.6 1.6 0 00.96-1.464v-.425H2.27v.338a.881.881 0 01-.059.338.608.608 0 01-.144.214.697.697 0 01-.415.145.504.504 0 01-.465-.204.898.898 0 01-.132-.508v-3.537c-.006-.197.036-.391.122-.568a.507.507 0 01.485-.228.527.527 0 01.443.213.806.806 0 01.165.509v.328h.981v-.387a1.789 1.789 0 00-.121-.663 1.564 1.564 0 00-.332-.534zM8.69 42.32a1.765 1.765 0 00-1.128-.417c-.202.001-.402.037-.592.107a1.559 1.559 0 00-.908.842c-.1.232-.149.482-.144.735v3.639c-.007.256.042.51.144.745.09.196.221.369.385.508.151.141.33.25.523.32.19.07.39.107.592.108a1.714 1.714 0 001.129-.428c.158-.142.285-.315.374-.508.102-.235.151-.49.144-.745v-3.64a1.77 1.77 0 00-.144-.734 1.643 1.643 0 00-.374-.532zm-.462 4.906a.654.654 0 01-.198.526.727.727 0 01-.933 0 .651.651 0 01-.197-.526v-3.64a.654.654 0 01.197-.526.727.727 0 01.933 0 .651.651 0 01.198.527v3.639zM16.43 48.85v-6.888h-.954l-1.252 3.646h-.018l-1.262-3.646H12v6.889h.984V44.66h.018l.964 2.962h.49l.972-2.962h.017v4.19h.985zM22.02 42.445c-.151-.17-.343-.3-.556-.376a2.178 2.178 0 00-.714-.107h-1.462v6.888h.982v-2.69h.506c.306.014.61-.05.885-.188a1.43 1.43 0 00.539-.526c.113-.184.19-.388.225-.6.039-.26.056-.522.053-.784.01-.33-.023-.661-.096-.984a1.466 1.466 0 00-.362-.633zm-.506 2.1a.868.868 0 01-.09.359.553.553 0 01-.254.241 1.007 1.007 0 01-.463.087h-.448V42.89h.506a.942.942 0 01.443.086.556.556 0 01.23.255c.054.12.083.251.086.384v.457c0 .16.01.326 0 .473h-.01zM26.67 41.962h-.805l-1.518 6.889h.982l.288-1.48h1.338l.289 1.48h.981l-1.556-6.89zm-.906 4.47l.483-2.497h.018l.48 2.497h-.981zM33.012 46.112h-.018l-1.482-4.15h-.944v6.889h.981v-4.143h.02l1.5 4.143h.924v-6.89h-.981v4.15zM39.01 41.962l-.79 2.739h-.02l-.79-2.74h-1.039l1.348 3.978v2.912h.982v-2.912l1.348-3.977h-1.04zM.062 50.796h.473v1.327h.321v-1.327h.47v-.272H.063v.272zM4.039 50.524l-.62 1.6h.341l.132-.364h.637l.137.363h.35l-.636-1.6H4.04zm-.05.966l.217-.593.217.593h-.435zM7.97 51.533h.37v.206a.613.613 0 01-.38.135.402.402 0 01-.34-.152.669.669 0 01-.118-.418c0-.355.154-.534.46-.534a.338.338 0 01.362.255l.316-.061c-.068-.313-.293-.47-.678-.47a.804.804 0 00-.559.205.782.782 0 00-.23.616.873.873 0 00.205.6.776.776 0 00.607.234.962.962 0 00.678-.255v-.63H7.97v.27zM11.984 50.524h-.323v1.6h1.12v-.273h-.797v-1.327zM15.38 50.524h-.324v1.6h.324v-1.6zM18.698 51.592l-.655-1.068h-.313v1.6h.3v-1.046l.643 1.045h.321v-1.6h-.296v1.069zM21.699 51.419h.797v-.272h-.797v-.351h.857v-.272h-1.181v1.6h1.214v-.273h-.89v-.432zM28.974 51.154h-.63v-.63h-.321v1.6h.321v-.7h.63v.7h.321v-1.6h-.32v.63zM31.992 51.419h.8v-.272h-.8v-.351h.86v-.272h-1.181v1.6h1.212v-.273h-.89v-.432zM36.086 51.419c.278-.043.42-.19.42-.445a.383.383 0 00-.157-.356.905.905 0 00-.468-.094h-.678v1.6h.32v-.67h.064a.431.431 0 01.2.036c.047.03.086.07.114.117l.349.509h.385l-.195-.313a1.114 1.114 0 00-.354-.384zm-.324-.221h-.238v-.402h.253a.84.84 0 01.326.038.208.208 0 01.046.256.207.207 0 01-.061.07.912.912 0 01-.326.038zM39.172 51.419h.796v-.272h-.797v-.351h.86v-.272h-1.183v1.6h1.214v-.273h-.89v-.432z"/></g><defs><clipPath id="clip0"><path fill="#fff" transform="translate(.062 .151)" d="M0 0h40v52H0z"/></clipPath></defs></svg>