<svg width="60" height="48" fill="none" xmlns="http://www.w3.org/2000/svg"><g clip-path="url(#clip0)" fill="#AFB1B8"><path d="M4.55 39.429c.23.286.352.643.346 1.01a1.605 1.605 0 01-.536 1.277c-.447.339-1 .504-1.559.466H.062v-6.404h2.683a2.284 2.284 0 011.487.425 1.464 1.464 0 01.52 1.198c.016.354-.095.701-.311.98-.209.254-.496.43-.817.5.363.067.692.261.926.548zm-3.213-.967h1.146c.261.02.52-.056.73-.213a.76.76 0 00.246-.625.788.788 0 00-.243-.626 1.106 1.106 0 00-.751-.216H1.337v1.68zm1.988 2.456a.794.794 0 00.271-.65.81.81 0 00-.277-.658 1.18 1.18 0 00-.78-.231H1.338v1.762h1.218c.274.015.546-.063.77-.223zM10.034 42.182L8.543 39.68H7.98v2.503H6.697v-6.404h2.43a2.39 2.39 0 011.693.544 2.047 2.047 0 01.18 2.65c-.3.345-.709.575-1.159.651l1.59 2.56h-1.396zm-2.053-3.376h1.05c.73 0 1.094-.323 1.094-.97a.955.955 0 00-.268-.72 1.134 1.134 0 00-.826-.259H7.968l.013 1.95zM17.053 40.893h-2.559l-.452 1.29h-1.346l2.35-6.334H16.5l2.34 6.333h-1.346l-.442-1.289zm-.343-.97l-.935-2.703-.935 2.703h1.87zM25.838 42.182h-1.275l-2.857-4.355v4.355h-1.272v-6.404h1.272l2.857 4.38v-4.38h1.275v6.404zM33.112 40.65a2.757 2.757 0 01-1.153 1.129c-.555.281-1.17.42-1.792.403h-2.27v-6.404h2.27a3.817 3.817 0 011.792.394c.488.247.89.636 1.153 1.117a3.736 3.736 0 010 3.36zm-1.459-.154a2.352 2.352 0 000-3.057 2.21 2.21 0 00-1.595-.544h-.885v4.145h.885a2.21 2.21 0 001.595-.544zM17.85.151s16.452 6.236 16.103 15.26v15.263s-16.439-6.239-16.096-15.263L17.85.151zM48.61 27.1a22.486 22.486 0 0110.452-3.867v-4.777A21.467 21.467 0 0048.609 27.1z"/><path d="M46.743 28.54a22.382 22.382 0 0112.32-11.086V3.687S35.632 12.57 36.127 25.42v21.73s1.044-.397 2.687-1.142c0-.694 0-1.395.075-2.1a22.605 22.605 0 017.853-15.369z"/><path d="M44.515 36.613c.123-1.507.397-2.998.82-4.45a21.04 21.04 0 00-4.962 13.127 68.003 68.003 0 004.506-2.385 22.573 22.573 0 01-.364-6.292zM45.447 36.691a21.581 21.581 0 00.29 5.698c6.4-3.846 13.593-9.787 13.316-16.968v-.626a20.971 20.971 0 00-12.18 5.713 21.492 21.492 0 00-1.426 6.183z"/></g><defs><clipPath id="clip0"><path fill="#fff" transform="translate(.062 .151)" d="M0 0h59v47H0z"/></clipPath></defs></svg>