<svg width="89" height="46" fill="none" xmlns="http://www.w3.org/2000/svg"><path d="M44.802 21.505a3.259 3.259 0 01-.57-2.058v-2.982c0-.915.189-1.61.567-2.085.378-.475 1.028-.712 1.949-.71.865 0 1.48.203 1.843.607.396.516.589 1.148.544 1.784v.701h-1.547v-.71a3.962 3.962 0 00-.045-.695.688.688 0 00-.221-.412.836.836 0 00-.561-.161.887.887 0 00-.59.17.809.809 0 00-.256.455c-.045.243-.065.49-.061.737v3.62c-.025.35.044.699.198 1.016a.735.735 0 00.31.247.782.782 0 00.399.057.788.788 0 00.548-.164.748.748 0 00.23-.44 4.37 4.37 0 00.048-.725v-.734h1.548v.67a2.914 2.914 0 01-.535 1.875c-.355.443-.961.665-1.852.665-.891 0-1.564-.237-1.946-.728zM51.248 21.535c-.391-.464-.587-1.14-.587-2.036v-3.137c0-.886.196-1.557.587-2.012.39-.455 1.044-.682 1.961-.68.91 0 1.56.227 1.952.68.39.455.59 1.126.59 2.012v3.137c0 .886-.2 1.566-.597 2.033-.397.467-1.044.7-1.945.7-.9 0-1.567-.236-1.961-.697zm2.682-.753c.14-.29.204-.609.186-.928v-3.841a1.843 1.843 0 00-.183-.91.739.739 0 00-.316-.25.786.786 0 00-.408-.054.796.796 0 00-.41.054.749.749 0 00-.318.25c-.14.284-.204.596-.185.91v3.86c-.02.318.044.637.185.928a.96.96 0 00.327.23 1.007 1.007 0 001.122-.23v-.019zM57.612 13.762h1.667l1.253 5.788 1.282-5.788h1.622l.163 8.355h-1.198l-.129-5.807-1.237 5.807h-.961l-1.282-5.828-.119 5.828h-1.211l.15-8.355zM65.468 13.762h2.596c1.495 0 2.243.79 2.243 2.372 0 1.515-.787 2.272-2.362 2.27h-.884v3.713h-1.603l.01-8.355zm2.217 3.57c.159.02.32.006.472-.04a1.12 1.12 0 00.41-.223c.184-.282.265-.614.23-.944a2.859 2.859 0 00-.076-.758.634.634 0 00-.118-.23.674.674 0 00-.203-.168 1.53 1.53 0 00-.715-.133h-.621v2.497h.621zM72.618 13.762h1.721l1.766 8.355H74.61l-.349-1.926h-1.535l-.359 1.926h-1.516l1.766-8.355zm1.471 5.46l-.6-3.506-.599 3.507h1.199zM77.531 13.762h1.122l2.147 4.766v-4.766h1.33v8.355h-1.067l-2.16-4.975v4.975h-1.375l.003-8.355zM85.246 18.931l-1.786-5.157h1.504l1.09 3.313 1.022-3.313h1.47l-1.762 5.157v3.186h-1.538v-3.186zM47.277 25.77v.437H45.97v3.395h-.548v-3.395h-1.314v-.437h3.17zM51.376 29.602h-.423a.175.175 0 01-.119-.036.195.195 0 01-.07-.088l-.379-.91h-1.814l-.378.91a.257.257 0 01-.058.103.183.183 0 01-.118.037h-.423l1.602-3.832h.558l1.622 3.816zm-2.654-1.422h1.513l-.641-1.56a2.964 2.964 0 01-.119-.36l-.06.202-.059.161-.634 1.556zM54.139 29.226c.1.005.2.005.3 0 .088-.008.173-.024.257-.045a1.86 1.86 0 00.231-.07c.07-.027.141-.06.215-.094v-.862H54.5a.121.121 0 01-.087-.03.088.088 0 01-.032-.07v-.294h1.244v1.468a2.35 2.35 0 01-1.077.392 4.431 4.431 0 01-.468.024 2.25 2.25 0 01-.808-.143 1.936 1.936 0 01-.64-.4 1.848 1.848 0 01-.414-.607 2.075 2.075 0 01-.148-.795 2.155 2.155 0 01.145-.801c.092-.227.233-.434.413-.607a1.91 1.91 0 01.641-.398c.275-.097.566-.146.859-.142.15 0 .298.01.446.033.13.02.258.053.38.097.113.04.22.091.321.152.099.06.192.127.28.2l-.155.237a.14.14 0 01-.052.052.15.15 0 01-.073.02.197.197 0 01-.099-.03 1.953 1.953 0 01-.157-.09 1.359 1.359 0 00-.215-.104 1.874 1.874 0 00-.295-.085 2.255 2.255 0 00-.407-.033 1.746 1.746 0 00-.618.106 1.337 1.337 0 00-.471.303c-.133.138-.235.3-.298.477a1.953 1.953 0 000 1.277c.07.18.179.345.32.483.132.131.291.235.468.303.204.067.42.092.635.076zM59.247 29.165h1.75v.437h-2.285V25.77h.548l-.013 3.395zM62.818 29.602h-.548V25.77h.548v3.832zM64.856 25.788c.032.018.06.042.083.07l2.343 2.889a.973.973 0 010-.137v-2.855h.478v3.847h-.276a.238.238 0 01-.119-.02.317.317 0 01-.086-.074l-2.34-2.885v2.979h-.458V25.77h.285a.23.23 0 01.09.018zM71.794 25.77v.422h-1.942v1.265h1.574v.407h-1.574v1.307h1.942v.422h-2.506V25.77h2.506zM14.366 2.105L38.7 8.647v22.922L14.365 25.03V2.105zM12.805.151v25.993l27.453 7.382V7.536L12.805.151z" fill="#AFB1B8"/><path d="M27.519 45.591L.062 38.203v-25.99L27.519 19.6V45.59z" fill="#AFB1B8"/><path d="M13.26 1.81l24.018 6.46-10.215 9.672-24.02-6.462L13.26 1.81zM12.805.152L.062 12.214 27.518 19.6l12.74-12.063L12.805.15zM29.064 44.13l11.194-10.601-11.195-3.013v13.613z" fill="#AFB1B8"/></svg>