<svg width="45" height="45" fill="none" xmlns="http://www.w3.org/2000/svg"><path d="M44.062 22.151a21.931 21.931 0 01-6.444 15.557 21.931 21.931 0 01-15.556 6.443 21.931 21.931 0 01-15.556-6.443A21.931 21.931 0 01.062 22.15 21.931 21.931 0 016.506 6.595 21.931 21.931 0 0122.062.15a21.931 21.931 0 0115.556 6.444 21.931 21.931 0 016.444 15.556z" fill="#fff"/><g clip-path="url(#clip0)"><path d="M32.062 15.95a8.55 8.55 0 01-2.362.648 4.077 4.077 0 001.803-2.267 8.193 8.193 0 01-2.6.993 4.099 4.099 0 00-7.093 2.804c0 .325.028.637.096.934-3.409-.166-6.425-1.8-8.451-4.288a4.129 4.129 0 00-.562 2.072c0 1.42.731 2.679 1.821 3.408a4.049 4.049 0 01-1.852-.505v.045a4.12 4.12 0 003.285 4.029 4.094 4.094 0 01-1.075.134c-.262 0-.527-.015-.776-.07.531 1.624 2.038 2.818 3.831 2.857a8.238 8.238 0 01-5.084 1.748 7.67 7.67 0 01-.981-.056 11.543 11.543 0 006.29 1.84c7.545 0 11.67-6.25 11.67-11.667 0-.182-.006-.357-.015-.53a8.179 8.179 0 002.055-2.129z" fill="#AFB1B8"/></g><defs><clipPath id="clip0"><path fill="#fff" transform="translate(12.062 12.151)" d="M0 0h20v20H0z"/></clipPath></defs></svg>