<svg aria-hidden="true" style="position: absolute; width: 0; height: 0; overflow: hidden;" version="1.1" xmlns="http://www.w3.org/2000/svg" xmlns:xlink="http://www.w3.org/1999/xlink">
<defs>
<symbol id="icon-antenna-1" viewBox="0 0 32 32">
<path fill="#212121" style="fill: var(--color1, #212121)" d="M30.773 22.098l-8.443-8.505 0.937-4.615c0.242 0.094 0.499 0.144 0.758 0.146h0.006c0.008 0 0.017 0 0.026 0 1.192 0 2.159-0.967 2.159-2.159s-0.967-2.159-2.159-2.159c-1.192 0-2.159 0.967-2.159 2.159 0 0.26 0.046 0.508 0.13 0.739l-0.005-0.015-4.96 0.605-8.091-8.133c-0.096-0.098-0.229-0.159-0.377-0.16h-0c-0.146 0.001-0.277 0.060-0.373 0.155l0-0-1.513 1.504c-0.096 0.097-0.156 0.23-0.156 0.377s0.060 0.28 0.156 0.377v0l0.814 0.826c-1.143 2.062-1.816 4.522-1.816 7.139 0 4.105 1.656 7.824 4.336 10.525l-0.001-0.001c0.041 0.040 0.090 0.073 0.143 0.097l0.003 0.001c-0.034 0.18-0.051 0.364-0.052 0.547v6.187h-6.4c-1.472 0.002-2.665 1.195-2.667 2.667v1.067c0 0.295 0.239 0.533 0.533 0.533h24.533c0.294 0 0.533-0.239 0.533-0.533v0-1.067c-0.002-1.472-1.195-2.665-2.667-2.667h-6.4v-2.742c0.915 0.2 1.968 0.317 3.047 0.32h0.002c2.58-0.003 5.005-0.663 7.117-1.822l-0.077 0.039 0.818 0.823c0.096 0.098 0.229 0.159 0.377 0.16h0c0.146-0.001 0.277-0.060 0.373-0.155l-0 0 1.513-1.504c0.096-0.097 0.156-0.23 0.156-0.377s-0.060-0.28-0.156-0.377v0zM23.28 6.233c0.193-0.192 0.458-0.31 0.752-0.31 0.589 0 1.066 0.477 1.066 1.066s-0.477 1.066-1.066 1.066h-0.003c-0.587-0.003-1.061-0.48-1.061-1.067 0-0.295 0.12-0.563 0.314-0.756l0-0h-0.002zM22.024 9.738l-0.598 2.946-1.175-1.182 1.774-1.763zM21.419 8.836l-1.92 1.909-1.485-1.493 3.405-0.415zM24.004 28.8c0.884 0 1.6 0.716 1.6 1.6v0 0.533h-23.467v-0.533c0-0.884 0.716-1.6 1.6-1.6v0h20.267zM16.537 26.667v1.067h-5.333v-1.067h5.333zM11.204 25.6v-4.053c0-1.294 1.196-2.347 2.667-2.347s2.667 1.053 2.667 2.347v4.053h-5.333zM17.604 23.904v-2.357c0-1.882-1.675-3.413-3.733-3.413-0.017-0-0.038-0-0.058-0-1.353 0-2.54 0.707-3.213 1.771l-0.009 0.016c-2.36-2.482-3.811-5.846-3.811-9.55 0-2.314 0.567-4.496 1.569-6.414l-0.036 0.077 18.602 18.708c-1.823 0.947-3.979 1.502-6.266 1.502-1.079 0-2.129-0.124-3.136-0.358l0.093 0.018zM28.893 23.22l-21.057-21.181 0.755-0.752 7.935 7.98c0.004 0 0.006 0.007 0.010 0.010l13.115 13.191-0.757 0.752z"></path>
<path fill="#2196f3" style="fill: var(--color2, #2196f3)" d="M13.876 20.267h-0.005c-0.001 0-0.001 0-0.002 0-0.884 0-1.6 0.716-1.6 1.6s0.715 1.599 1.598 1.6h0.005c0.001 0 0.001 0 0.002 0 0.884 0 1.6-0.716 1.6-1.6s-0.715-1.599-1.598-1.6h-0zM14.249 22.245c-0.094 0.084-0.218 0.135-0.355 0.135-0.295 0-0.534-0.239-0.534-0.534 0-0.137 0.052-0.263 0.137-0.357l-0 0c0.096-0.095 0.227-0.154 0.373-0.155h0c0.294 0 0.532 0.238 0.532 0.532 0 0.148-0.061 0.282-0.159 0.379l-0 0h0.005z"></path>
</symbol>
<symbol id="icon-astronaut-1" viewBox="0 0 32 32">
<path fill="#2196f3" style="fill: var(--color2, #2196f3)" d="M31.974 4.524c-0.064-0.191-0.227-0.332-0.427-0.363l-0.003-0-1.91-0.278-0.855-1.731c-0.179-0.365-0.777-0.365-0.956 0l-0.855 1.731-1.91 0.278c-0.259 0.040-0.455 0.262-0.455 0.529 0 0.149 0.061 0.284 0.159 0.381l0 0 1.383 1.348-0.326 1.903c-0.034 0.2 0.048 0.402 0.212 0.522 0.087 0.064 0.195 0.102 0.313 0.102 0.091 0 0.177-0.023 0.252-0.064l-0.003 0.001 1.709-0.899 1.709 0.899c0.071 0.038 0.156 0.060 0.246 0.060 0.296 0 0.536-0.24 0.536-0.536 0-0.031-0.003-0.061-0.008-0.090l0 0.003-0.326-1.903 1.383-1.348c0.099-0.097 0.161-0.233 0.161-0.383 0-0.059-0.009-0.115-0.027-0.168l0.001 0.004zM29.511 5.851c-0.099 0.097-0.161 0.232-0.161 0.382 0 0.032 0.003 0.063 0.008 0.093l-0-0.003 0.191 1.114-1-0.526c-0.072-0.039-0.158-0.062-0.249-0.062s-0.177 0.023-0.252 0.063l0.003-0.001-1.001 0.526 0.191-1.114c0.005-0.027 0.008-0.058 0.008-0.090 0-0.15-0.061-0.285-0.161-0.382l-0-0-0.81-0.789 1.119-0.163c0.177-0.026 0.324-0.137 0.401-0.289l0.001-0.003 0.5-1.013 0.5 1.013c0.078 0.155 0.225 0.265 0.399 0.292l0.003 0 1.119 0.163-0.809 0.789zM26.133 20.522h-1.067v1.067h1.067v-1.067zM26.133 22.656h-1.067v1.067h1.067v-1.067zM27.2 21.589h-1.067v1.067h1.067v-1.067zM25.067 21.589h-1.067v1.067h1.067v-1.067zM22.4 26.389h-1.067v1.067h1.067v-1.067zM22.4 28.522h-1.067v1.067h1.067v-1.067zM23.467 27.456h-1.067v1.067h1.067v-1.067zM21.333 27.456h-1.067v1.067h1.067v-1.067zM16 24.256h-1.067v1.067h1.067v-1.067zM16 26.389h-1.067v1.067h1.067v-1.067zM17.067 25.322h-1.067v1.067h1.067v-1.067zM14.933 25.322h-1.067v1.067h1.067v-1.067zM5.866 6.122h-1.067v1.067h1.067v-1.067zM5.866 8.255h-1.067v1.067h1.067v-1.067z"></path>
<path fill="#2196f3" style="fill: var(--color2, #2196f3)" d="M6.933 7.189h-1.067v1.067h1.067v-1.067zM4.8 7.189h-1.067v1.067h1.067v-1.067z"></path>
<path fill="#212121" style="fill: var(--color1, #212121)" d="M24.715 14.159c-0.28-0.376-0.698-0.636-1.179-0.704l-0.009-0.001c-0.076-0.012-0.164-0.018-0.254-0.018-0.411 0-0.789 0.139-1.090 0.373l0.004-0.003-1.252 0.96-1.898 1.417-1.358-0.541c2.421-1.086 4.114-3.508 4.114-6.32 0-3.823-3.123-6.933-6.961-6.933s-6.961 3.11-6.961 6.933c0 0 0 0.001 0 0.001 0 1.398 0.418 2.698 1.136 3.782l-0.016-0.025-2.769-0.024c-0.009 0-0.015 0.004-0.023 0.005-0.056 0.002-0.109 0.014-0.159 0.032l0.004-0.001-0.038 0.013c-0.006 0.003-0.013 0.003-0.019 0.006l-3.234 1.597-1.893 0.911c-0.024 0.011-0.045 0.023-0.064 0.036l0.001-0.001c-0.482 0.323-0.795 0.866-0.795 1.482 0 0.297 0.073 0.577 0.201 0.823l-0.005-0.010c0.22 0.429 0.595 0.745 1.056 0.889 0.161 0.053 0.346 0.083 0.538 0.083 0.308 0 0.597-0.078 0.85-0.216l-0.009 0.005 1.388-0.738 2.264-1.169 1.357-0.008-6.783 6.75c-0.316 0.315-0.49 0.732-0.49 1.178s0.174 0.863 0.49 1.179c0.325 0.323 0.752 0.485 1.179 0.485s0.854-0.162 1.18-0.485l1.314-1.309 1.741-1.3 0.901 0.897-3.103 3.088c-0.316 0.315-0.49 0.732-0.49 1.178s0.174 0.863 0.49 1.179c0.325 0.323 0.753 0.485 1.18 0.485s0.855-0.162 1.18-0.485l3.483-3.469 1.010-1-0.004-0.004c0.006-0.006 0.015-0.009 0.022-0.015l5.166-5.658 3.471 0.494c0.020 0.003 0.044 0.005 0.068 0.005 0.070 0 0.136-0.014 0.197-0.039l-0.003 0.001c0.018-0.006 0.033-0.015 0.050-0.023 0.019-0.010 0.039-0.015 0.058-0.027l3.213-2.133c0.012-0.008 0.018-0.021 0.029-0.029 0.013-0.010 0.029-0.014 0.041-0.026l1.271-1.191c0.662-0.62 0.753-1.635 0.212-2.362zM2.13 17.77c-0.098 0.054-0.215 0.086-0.34 0.086-0.078 0-0.153-0.012-0.223-0.036l0.005 0.001c-0.294-0.094-0.503-0.365-0.503-0.684 0-0.235 0.113-0.444 0.288-0.574l0.002-0.001 1.314-0.632 0.449 1.312-0.992 0.527zM5.628 15.942l-1.548 0.8-0.439-1.283 2.027-1.001-0.040 1.484zM20.727 9.322c-0.001 0.932-0.222 1.813-0.614 2.592l0.015-0.033-4.181-1.899c-0.044-0.575-0.342-1.073-0.782-1.384l-0.006-0.004 1.464-4.86c2.378 0.756 4.105 2.974 4.105 5.588zM8.938 9.322c0-3.235 2.644-5.867 5.894-5.867 0.253 0 0.5 0.021 0.745 0.052l-1.432 4.754c-0.019-0.001-0.037-0.006-0.057-0.006-1.033 0-1.873 0.837-1.873 1.867s0.84 1.867 1.873 1.867c0.694 0 1.294-0.383 1.618-0.945l3.862 1.755c-1.085 1.456-2.802 2.389-4.737 2.39h-0c-3.25 0-5.894-2.632-5.894-5.867zM14.894 10.122c0 0.441-0.362 0.8-0.806 0.8s-0.806-0.359-0.806-0.8c0-0.441 0.362-0.8 0.806-0.8s0.806 0.359 0.806 0.8zM2.465 25.146c-0.11 0.109-0.261 0.176-0.428 0.176s-0.317-0.067-0.427-0.175l0 0c-0.109-0.107-0.177-0.257-0.177-0.422s0.068-0.315 0.177-0.422l0-0 0.962-0.958 0.851 0.848-0.959 0.955zM5.679 28.88c-0.11 0.109-0.261 0.176-0.428 0.176s-0.317-0.067-0.427-0.175l0 0c-0.109-0.107-0.177-0.257-0.177-0.422s0.068-0.315 0.177-0.422l0-0 0.963-0.959 0.852 0.848-0.96 0.955zM9.16 25.411l-0.002 0.001-1.765 1.76-0.852-0.848 1.765-1.756c0.040-0.040 0.065-0.088 0.090-0.135 0.007-0.014 0.020-0.026 0.026-0.040 0.017-0.041 0.019-0.085 0.026-0.129 0.003-0.025 0.014-0.047 0.014-0.073 0-0.036-0.013-0.070-0.020-0.106-0.006-0.032-0.006-0.065-0.019-0.095-0.025-0.053-0.055-0.098-0.091-0.138l0 0c-0.010-0.012-0.014-0.027-0.025-0.038h-0.001l-0.001-0.002-1.607-1.6c-0.017-0.017-0.039-0.024-0.058-0.038-0.025-0.021-0.054-0.040-0.084-0.057l-0.003-0.001c-0.026-0.013-0.057-0.024-0.089-0.032l-0.004-0.001c-0.030-0.009-0.065-0.017-0.101-0.020l-0.002-0c-0.006-0-0.014-0-0.021-0-0.026 0-0.052 0.002-0.076 0.006l0.003-0c-0.038 0.004-0.074 0.011-0.108 0.021l0.004-0.001c-0.036 0.013-0.067 0.028-0.096 0.046l0.002-0.001c-0.020 0.011-0.042 0.015-0.061 0.029l-1.773 1.324-0.901-0.897 2.399-2.386 4.361 4.289-0.928 0.919zM15.979 18.394c-0.015-0.002-0.030 0.004-0.045 0.003-0.006-0-0.013-0-0.020-0-0.103 0-0.199 0.028-0.282 0.077l0.003-0.001c-0.031 0.018-0.059 0.039-0.083 0.061l0-0c-0.013 0.011-0.028 0.017-0.040 0.029l-4.698 5.146-4.328-4.257 2.833-2.818c0.096-0.097 0.156-0.23 0.156-0.377 0-0.295-0.239-0.534-0.534-0.534-0 0-0.001 0-0.001 0h0v-0.001l-2.219 0.013 0.028-1.607 3.104 0.027c1.263 1.297 3.027 2.101 4.978 2.101 0.001 0 0.002 0 0.004 0h-0c0.437 0 0.864-0.045 1.279-0.123 0.040 0.032 0.079 0.065 0.13 0.085l2.41 0.96 0.152 0.758 0.178 0.885-3.003-0.427zM20.020 18.572l-0.313-1.558 1.446-1.080 0.947 1.257-2.080 1.381zM23.774 15.741l-0.838 0.785-0.931-1.236 0.831-0.637c0.122-0.093 0.277-0.15 0.445-0.15 0.035 0 0.069 0.002 0.102 0.007l-0.004-0c0.198 0.028 0.367 0.132 0.479 0.282l0.001 0.002c0.088 0.117 0.141 0.265 0.141 0.426 0 0.205-0.087 0.391-0.226 0.521l-0 0z"></path>
<path fill="#212121" style="fill: var(--color1, #212121)" d="M13.602 18.544l-2.143-2.133c-0.097-0.096-0.23-0.155-0.377-0.155s-0.28 0.059-0.377 0.155l0-0-2.142 2.133c-0.096 0.097-0.156 0.231-0.156 0.378s0.059 0.281 0.156 0.378l-0-0 2.142 2.133c0.097 0.096 0.23 0.154 0.377 0.154s0.28-0.059 0.377-0.155l-0 0 2.143-2.133c0.097-0.097 0.156-0.23 0.156-0.378s-0.060-0.281-0.156-0.378v0zM11.083 20.303l-1.387-1.381 1.387-1.381 1.387 1.381-1.387 1.381zM17.164 5.071l-0.258 1.036c0.071 0.018 1.738 0.452 1.738 2.149h1.067c0-2.017-1.666-2.965-2.547-3.185zM19.711 9.322h-1.067v1.067h1.067v-1.067z"></path>
</symbol>
<symbol id="icon-clock-1" viewBox="0 0 32 32">
<path fill="#212121" style="fill: var(--color1, #212121)" d="M31.297 15.301c-0.002-8.452-6.855-15.303-15.308-15.301s-15.303 6.855-15.301 15.308c0.001 6.788 4.422 12.543 10.541 14.545l0.108 0.031c0.057 0.018 0.123 0.028 0.191 0.028 0.125 0 0.242-0.035 0.341-0.095l-0.003 0.002c0.134-0.080 0.234-0.204 0.282-0.352l0.001-0.005 3.865-12.25c1.051-0.006 1.901-0.86 1.901-1.912 0-1.056-0.856-1.912-1.912-1.912-0.301 0-0.587 0.070-0.84 0.194l0.011-0.005-5.106-5.107c-0.115-0.115-0.275-0.187-0.451-0.187-0.352 0-0.638 0.286-0.638 0.638 0 0.176 0.071 0.336 0.187 0.451v0l5.103 5.109c-0.121 0.241-0.191 0.525-0.191 0.826 0 0.601 0.283 1.137 0.723 1.48l0.004 0.003-3.683 11.673c-7.278-2.681-11.004-10.754-8.323-18.032s10.754-11.004 18.032-8.323 11.004 10.754 8.323 18.032c-1.345 3.581-4.003 6.406-7.374 7.937l-0.088 0.036-0.398-1.874c-0.063-0.291-0.319-0.505-0.624-0.505-0.163 0-0.312 0.061-0.425 0.162l0.001-0.001-3.837 3.426c-0.132 0.117-0.214 0.287-0.214 0.477 0 0.283 0.185 0.523 0.441 0.606l0.005 0.001 4.899 1.563c0.058 0.019 0.125 0.030 0.195 0.030 0.352 0 0.638-0.286 0.638-0.638 0-0.047-0.005-0.093-0.015-0.137l0.001 0.004-0.391-1.839c5.528-2.374 9.329-7.772 9.329-14.057 0-0.011 0-0.023-0-0.034v0.002zM15.992 14.664c0.353 0 0.639 0.286 0.639 0.639s-0.286 0.639-0.639 0.639v0c-0.353 0-0.639-0.286-0.639-0.639s0.286-0.639 0.639-0.639v0zM18.093 29.528l2.184-1.948 0.603 2.84-2.787-0.892z"></path>
<path fill="#2196f3" style="fill: var(--color2, #2196f3)" d="M15.354 3.185v1.275c0 0.352 0.286 0.638 0.638 0.638s0.638-0.286 0.638-0.638v-1.275c0-0.352-0.286-0.638-0.638-0.638s-0.638 0.286-0.638 0.638v0zM3.876 14.664c-0.352 0-0.638 0.286-0.638 0.638s0.286 0.638 0.638 0.638h1.275c0.352 0 0.638-0.286 0.638-0.638s-0.286-0.638-0.638-0.638h-1.275zM28.108 15.939c0.352 0 0.638-0.286 0.638-0.638s-0.286-0.638-0.638-0.638h-1.275c-0.352 0-0.638 0.286-0.638 0.638s0.286 0.638 0.638 0.638h1.275z"></path>
</symbol>
<symbol id="icon-diagram-1" viewBox="0 0 32 32">
<path fill="#2196f3" style="fill: var(--color2, #2196f3)" d="M14.925 14.965h1.066v4.798h-1.066v-4.797zM19.19 17.097h1.066v2.665h-1.066v-2.665zM10.661 18.696h1.066v1.066h-1.066v-1.066zM7.463 18.163h1.066v1.599h-1.066v-1.599z"></path>
<path fill="#212121" style="fill: var(--color1, #212121)" d="M1.599 28.291h25.587c0.883-0.001 1.598-0.716 1.599-1.599v-2.132c-0.001-0.883-0.716-1.598-1.599-1.599h-0.533v-13.293l3.028-2.868c0.208 0.105 0.452 0.166 0.712 0.166 0.888 0 1.608-0.72 1.608-1.608s-0.72-1.608-1.608-1.608c-0.888 0-1.608 0.72-1.608 1.608 0 0.246 0.055 0.48 0.155 0.689l-0.004-0.010-2.281 2.163v-1.23c-0.001-0.883-0.716-1.598-1.599-1.599h-21.322c-0.883 0.001-1.598 0.716-1.599 1.599v15.992h-0.533c-0.883 0.001-1.598 0.716-1.599 1.599v2.132c0.001 0.883 0.716 1.598 1.599 1.599h0zM30.384 4.837c0.295 0 0.534 0.239 0.534 0.534s-0.239 0.534-0.534 0.534v0c-0.295 0-0.534-0.239-0.534-0.534s0.239-0.534 0.534-0.534v0zM3.198 6.969c0-0.294 0.239-0.533 0.533-0.533h21.322c0.294 0 0.533 0.239 0.533 0.533v2.239l-1.066 1.013v-2.186c0-0.294-0.239-0.533-0.533-0.533v0h-19.19c-0.294 0-0.533 0.239-0.533 0.533v0 13.326c0 0.294 0.239 0.533 0.533 0.533h19.19c0.294 0 0.533-0.239 0.533-0.533v0-9.674l1.066-1.010v12.284h-22.388v-15.992zM7.996 13.898c-0 0-0.001 0-0.002 0-0.883 0-1.598 0.715-1.598 1.598s0.715 1.598 1.598 1.598c0.431 0 0.822-0.17 1.109-0.447l-0.001 0 1.853 0.93c0.069 0.035 0.151 0.056 0.238 0.056 0.158 0 0.3-0.069 0.398-0.179l0-0.001 3.939-4.431 3.872 2.901c0.088 0.067 0.199 0.107 0.32 0.107 0.142 0 0.271-0.055 0.366-0.146l-0 0 3.365-3.188v8.131h-18.124v-12.26h18.124v2.66l-3.771 3.572-3.904-2.927c-0.088-0.067-0.199-0.107-0.32-0.107-0.158 0-0.3 0.069-0.398 0.178l-0 0.001-3.993 4.493-1.493-0.746c0.011-0.064 0.018-0.129 0.020-0.193-0.001-0.883-0.716-1.598-1.599-1.599h-0zM8.529 15.498c0 0.295-0.239 0.533-0.534 0.533s-0.534-0.239-0.534-0.534v0c0-0.295 0.239-0.534 0.534-0.534s0.534 0.239 0.534 0.534v0zM11.727 24.026h5.331v0.533c0 0.294-0.239 0.533-0.533 0.533v0h-4.264c-0.294 0-0.533-0.239-0.533-0.533v0-0.533zM1.066 24.56c0-0.294 0.239-0.533 0.533-0.533h9.062v0.533c0.001 0.883 0.716 1.598 1.599 1.599h4.264c0.883-0.001 1.598-0.716 1.599-1.599v-0.533h9.062c0.294 0 0.533 0.239 0.533 0.533v2.132c0 0.294-0.239 0.533-0.533 0.533v0h-25.587c-0.294 0-0.533-0.239-0.533-0.533v0-2.132z"></path>
</symbol>
<symbol id="icon-Facebook" viewBox="0 0 32 32">
<path  d="M18.057 11.002h1.299v-2.261c-0.547-0.063-1.182-0.1-1.825-0.1-0.023 0-0.047 0-0.070 0h0.004c-1.872 0-3.155 1.177-3.155 3.341v1.992h-2.066v2.528h2.066v6.361h2.532v-6.36h1.983l0.314-2.528h-2.297v-1.742c0-0.73 0.197-1.23 1.215-1.23z"></path>
</symbol>
<symbol id="icon-icon-send" viewBox="0 0 32 32">
<path fill="#fff" style="fill: var(--color3, #fff)" d="M30.799 0.193l-30.72 17.28 9.818 3.636 15.142-14.195-11.517 15.538 0.009 0.004-0.012-0.004v8.461l5.505-6.423 6.976 2.583 4.799-26.88z"></path>
</symbol>
<symbol id="icon-Instagram" viewBox="0 0 32 32">
<path d="M22.785 12.822c-0.033-0.755-0.155-1.275-0.33-1.725-0.189-0.494-0.468-0.915-0.822-1.261l-0.001-0.001c-0.346-0.352-0.766-0.63-1.235-0.811l-0.024-0.008c-0.453-0.176-0.969-0.297-1.725-0.331-0.761-0.036-1.003-0.045-2.934-0.045s-2.172 0.009-2.931 0.042c-0.756 0.033-1.275 0.156-1.725 0.331-0.494 0.188-0.915 0.468-1.261 0.821l-0.001 0.001c-0.352 0.347-0.63 0.766-0.811 1.235l-0.008 0.024c-0.176 0.453-0.297 0.97-0.331 1.725-0.036 0.761-0.045 1.003-0.045 2.934s0.009 2.173 0.042 2.931c0.033 0.756 0.156 1.275 0.331 1.725 0.19 0.494 0.469 0.914 0.822 1.261l0 0c0.356 0.361 0.787 0.642 1.259 0.82 0.453 0.175 0.97 0.297 1.725 0.331 0.759 0.033 1.001 0.041 2.931 0.041s2.173-0.008 2.931-0.041c0.756-0.033 1.275-0.156 1.725-0.331 0.959-0.378 1.704-1.123 2.073-2.057l0.009-0.025c0.175-0.453 0.297-0.969 0.331-1.725 0.033-0.758 0.041-1 0.041-2.931s-0.003-2.172-0.036-2.931zM21.505 18.629c-0.031 0.695-0.148 1.070-0.245 1.32-0.245 0.622-0.729 1.106-1.335 1.345l-0.016 0.006c-0.249 0.097-0.627 0.213-1.319 0.244-0.75 0.033-0.975 0.042-2.873 0.042s-2.126-0.009-2.873-0.042c-0.695-0.031-1.069-0.147-1.32-0.244-0.32-0.12-0.593-0.301-0.816-0.531l-0.001-0.001c-0.23-0.224-0.411-0.496-0.526-0.801l-0.005-0.015c-0.097-0.25-0.213-0.628-0.244-1.32-0.033-0.75-0.042-0.976-0.042-2.873s0.009-2.126 0.042-2.873c0.031-0.695 0.147-1.069 0.244-1.32 0.12-0.321 0.301-0.594 0.533-0.816l0.001-0.001c0.224-0.23 0.497-0.411 0.803-0.526l0.015-0.005c0.249-0.097 0.627-0.213 1.319-0.244 0.75-0.033 0.976-0.042 2.873-0.042 1.9 0 2.126 0.009 2.873 0.042 0.695 0.031 1.070 0.147 1.32 0.245 0.308 0.114 0.589 0.294 0.816 0.53 0.236 0.23 0.417 0.508 0.531 0.816 0.097 0.25 0.213 0.628 0.244 1.32 0.033 0.75 0.042 0.976 0.042 2.873s-0.009 2.12-0.042 2.87z"></path>
<path d="M15.716 12.1c-2.018 0-3.654 1.636-3.654 3.654v0c0 0 0 0 0 0.001 0 2.018 1.636 3.654 3.654 3.654s3.654-1.636 3.654-3.654c0-2.018-1.636-3.654-3.654-3.654-0 0-0.001 0-0.001 0h0zM15.716 18.123c-1.309 0-2.37-1.061-2.37-2.37s1.061-2.37 2.37-2.37v0c1.309 0 2.37 1.061 2.37 2.37s-1.061 2.37-2.37 2.37v0zM20.366 11.955c0 0.471-0.382 0.853-0.853 0.853s-0.853-0.382-0.853-0.853v0c0-0.471 0.382-0.853 0.853-0.853s0.853 0.382 0.853 0.853v0z"></path>
</symbol>
<symbol id="icon-Linkedin" viewBox="0 0 32 32">
<path  d="M22.796 22.863h0.004v-5.217c0-2.551-0.549-4.517-3.532-4.517-1.434 0-2.396 0.787-2.79 1.533h-0.041v-1.295h-2.829v9.495h2.945v-4.702c0-1.238 0.235-2.435 1.768-2.435 1.51 0 1.533 1.412 1.533 2.514v4.622h2.942zM8.812 13.368h2.949v9.494h-2.949v-9.493zM10.286 8.641c-0.943 0-1.708 0.765-1.708 1.708v0c0 0.943 0.765 1.724 1.708 1.724s1.707-0.781 1.707-1.724c-0-0.943-0.764-1.707-1.707-1.708h-0z"></path>
</symbol>
<symbol id="icon-logo-1" viewBox="0 0 29 32">
<path d="M3.88 0.097l4.677 4.428h13.046v12.351l4.677 4.428v-21.206h-22.4z"></path>
<path d="M0.040 4.338v20.6h21.76v-8.188l-13.105-12.406-8.655-0.005zM17.654 21.924h-14.172v-13.855h1.002v12.916h13.17v0.938zM6.306 28.758l0.524-1.078h0.438l-0.763 1.437v0.838h-0.397v-0.838l-0.764-1.437h0.439l0.524 1.078zM8.552 29.425h-0.881l-0.184 0.53h-0.411l0.859-2.275h0.355l0.861 2.275h-0.413l-0.186-0.53zM7.782 29.107h0.659l-0.33-0.943-0.33 0.943zM10.111 29.341c0-0.106 0.029-0.202 0.086-0.289s0.17-0.193 0.339-0.314c-0.069-0.083-0.131-0.176-0.182-0.276l-0.004-0.008c-0.031-0.066-0.050-0.144-0.052-0.226v-0c0-0.178 0.054-0.319 0.163-0.422s0.254-0.156 0.437-0.156c0.166 0 0.301 0.049 0.406 0.147 0.106 0.097 0.16 0.218 0.16 0.361 0 0.001 0 0.002 0 0.003 0 0.096-0.027 0.186-0.074 0.262l0.001-0.002c-0.063 0.095-0.142 0.174-0.233 0.236l-0.003 0.002-0.155 0.113 0.439 0.518c0.064-0.125 0.096-0.264 0.096-0.417h0.33c0 0.28-0.066 0.509-0.197 0.689l0.334 0.396h-0.44l-0.128-0.152c-0.154 0.115-0.348 0.183-0.558 0.183-0.008 0-0.017-0-0.025-0l0.001 0c-0.225 0-0.405-0.060-0.54-0.178-0.124-0.11-0.202-0.27-0.202-0.447 0-0.007 0-0.014 0-0.021l-0 0.001zM10.864 29.683c0.128 0 0.248-0.043 0.359-0.128l-0.497-0.586-0.049 0.035c-0.125 0.095-0.188 0.204-0.188 0.325 0 0.105 0.034 0.191 0.102 0.256 0.066 0.061 0.155 0.099 0.253 0.099 0.007 0 0.013-0 0.020-0l-0.001 0zM10.654 28.218c0 0.088 0.054 0.198 0.161 0.33l0.173-0.118 0.049-0.039c0.059-0.052 0.097-0.128 0.097-0.212 0-0.003-0-0.006-0-0.009v0c0-0 0-0.001 0-0.002 0-0.059-0.026-0.113-0.067-0.149l-0-0c-0.042-0.040-0.099-0.064-0.162-0.064-0.003 0-0.006 0-0.009 0h0c-0.003-0-0.006-0-0.010-0-0.066 0-0.126 0.029-0.167 0.075l-0 0c-0.041 0.048-0.065 0.11-0.065 0.179 0 0.004 0 0.007 0 0.011v-0zM14.787 29.215c-0.023 0.243-0.113 0.432-0.269 0.568s-0.364 0.204-0.623 0.204c-0.181 0-0.341-0.043-0.48-0.128-0.139-0.090-0.248-0.214-0.317-0.362l-0.002-0.005c-0.074-0.16-0.117-0.347-0.117-0.544 0-0.003 0-0.005 0-0.008v0-0.212c0-0.214 0.038-0.403 0.114-0.567 0.077-0.164 0.186-0.29 0.326-0.378 0.143-0.090 0.307-0.133 0.494-0.133 0.252 0 0.453 0.068 0.607 0.205s0.242 0.329 0.267 0.578h-0.394c-0.019-0.164-0.067-0.282-0.144-0.353-0.076-0.073-0.188-0.109-0.336-0.109-0.172 0-0.304 0.063-0.397 0.189-0.092 0.125-0.138 0.309-0.141 0.552v0.202c0 0.246 0.044 0.433 0.132 0.563 0.088 0.128 0.218 0.193 0.387 0.193 0.155 0 0.272-0.035 0.35-0.105s0.128-0.186 0.148-0.348h0.394zM16.957 28.877c0 0.223-0.038 0.419-0.115 0.588-0.077 0.167-0.188 0.296-0.332 0.387-0.143 0.090-0.307 0.134-0.494 0.134-0.184 0-0.349-0.045-0.493-0.134-0.146-0.094-0.261-0.225-0.332-0.38l-0.002-0.006c-0.075-0.163-0.119-0.354-0.119-0.555 0-0.007 0-0.015 0-0.022v0.001-0.128c0-0.222 0.038-0.418 0.117-0.588s0.19-0.3 0.333-0.389c0.144-0.091 0.308-0.136 0.493-0.136s0.349 0.045 0.493 0.134c0.143 0.088 0.255 0.216 0.333 0.384 0.078 0.166 0.117 0.361 0.118 0.582v0.127zM16.562 28.758c0-0.252-0.048-0.445-0.143-0.58-0.085-0.123-0.225-0.202-0.384-0.202-0.007 0-0.015 0-0.022 0.001l0.001-0c-0.005-0-0.011-0-0.016-0-0.159 0-0.299 0.079-0.384 0.2l-0.001 0.002c-0.096 0.133-0.145 0.323-0.147 0.567v0.132c0 0.25 0.049 0.443 0.146 0.579s0.233 0.205 0.406 0.205c0.175 0 0.31-0.067 0.403-0.2 0.095-0.134 0.142-0.328 0.142-0.584v-0.119z"></path>
</symbol>
<symbol id="icon-logo-2" viewBox="0 0 25 32">
<path  d="M10.288 1.863h0.082c0.153 0 0.318 0.015 0.481 0.029 0.72 0.051 1.435 0.159 2.139 0.322v-1.729c-0.64-0.168-1.393-0.293-2.165-0.35l-0.041-0.002c-0.249-0.020-0.56-0.035-0.872-0.042l-0.020-0h-0.258c-1.494 0.005-2.983 0.197-4.43 0.571-1.648 0.411-3.23 1.055-4.7 1.912v17.145c1.287-0.715 2.779-1.313 4.348-1.717l0.132-0.029c1.232-0.315 2.491-0.508 3.76-0.578h0.051c0.212-0.010 0.424-0.017 0.643-0.018v-1.757c-1.746 0.023-3.427 0.259-5.032 0.682l0.144-0.032c-0.592 0.154-1.162 0.32-1.698 0.504l-0.611 0.208v-13.368l0.261-0.126c1.854-0.901 4.018-1.484 6.303-1.618l0.046-0.002c0.008-0.001 0.018-0.001 0.027-0.001s0.019 0 0.029 0.001l-0.001-0c0.243-0.012 0.487-0.018 0.728-0.018h0.275c0.127 0.003 0.254 0.006 0.38 0.014z"></path>
<path  d="M14.595 3.673c-0.006 0-0.013 0-0.019 0-0.896 0-1.775-0.075-2.63-0.22l0.092 0.013c-0.272-0.046-0.539-0.101-0.799-0.161v16.948c1.099 0.273 2.228 0.406 3.361 0.397 1.577-0.007 3.102-0.214 4.555-0.598l-0.126 0.028c1.782-0.452 3.348-1.107 4.785-1.957l-0.084 0.046v-16.84c-1.287 0.715-2.777 1.313-4.345 1.718l-0.133 0.029c-1.521 0.391-3.086 0.592-4.657 0.597zM21.372 3.967l0.611-0.206v13.373l-0.261 0.126c-0.886 0.434-1.926 0.818-3.008 1.097l-0.116 0.025c-1.306 0.338-2.648 0.511-3.997 0.517-0.403 0-0.803-0.017-1.191-0.051l-0.418-0.037v-13.752l0.487 0.032c0.354 0.024 0.721 0.034 1.119 0.034 1.806-0.007 3.554-0.244 5.22-0.683l-0.144 0.032c0.57-0.15 1.137-0.319 1.698-0.508zM1.691 25.578c-0.164-0.17-0.394-0.276-0.649-0.276-0.011 0-0.022 0-0.032 0.001l0.002-0c-0.004-0-0.008-0-0.012-0-0.137 0-0.268 0.027-0.387 0.077l0.007-0.002c-0.232 0.093-0.412 0.275-0.5 0.502l-0.002 0.006c-0.048 0.12-0.072 0.249-0.071 0.379v2.291c-0.006 0.162 0.025 0.322 0.090 0.47 0.054 0.117 0.132 0.222 0.229 0.307 0.091 0.077 0.199 0.133 0.314 0.163 0.112 0.031 0.227 0.047 0.342 0.047 0.128 0.001 0.254-0.026 0.369-0.080 0.344-0.153 0.579-0.491 0.58-0.884v-0.257h-0.6v0.204c0 0.004 0 0.008 0 0.012 0 0.069-0.013 0.135-0.037 0.195l0.001-0.004c-0.020 0.051-0.050 0.094-0.087 0.129l-0 0c-0.069 0.053-0.156 0.086-0.25 0.088h-0c-0.010 0.001-0.023 0.002-0.035 0.002-0.101 0-0.19-0.049-0.245-0.124l-0.001-0.001c-0.050-0.081-0.080-0.179-0.080-0.284 0-0.008 0-0.016 0.001-0.024l-0 0.001v-2.136c-0.004-0.119 0.022-0.236 0.074-0.343 0.055-0.085 0.15-0.14 0.257-0.14 0.013 0 0.025 0.001 0.037 0.002l-0.001-0c0.004-0 0.008-0 0.012-0 0.104 0 0.197 0.050 0.255 0.128l0.001 0.001c0.062 0.081 0.1 0.184 0.1 0.295 0 0.004-0 0.009-0 0.013v-0.001 0.198h0.592v-0.234c0-0.003 0-0.006 0-0.010 0-0.141-0.027-0.275-0.076-0.398l0.003 0.007c-0.047-0.125-0.115-0.233-0.201-0.323l0 0zM5.247 25.552c-0.183-0.155-0.421-0.25-0.681-0.252h-0c-0.122 0.001-0.243 0.022-0.357 0.065-0.247 0.089-0.442 0.271-0.546 0.502l-0.002 0.006c-0.060 0.14-0.090 0.291-0.087 0.444v2.197c-0.004 0.155 0.025 0.308 0.087 0.45 0.054 0.118 0.133 0.223 0.232 0.307 0.091 0.085 0.199 0.151 0.316 0.193 0.115 0.042 0.235 0.065 0.357 0.065 0.262-0.001 0.501-0.099 0.683-0.259l-0.001 0.001c0.095-0.086 0.172-0.19 0.226-0.307 0.062-0.142 0.091-0.296 0.087-0.45v-2.198c0-0.006 0-0.013 0-0.020 0-0.153-0.032-0.298-0.090-0.43l0.003 0.007c-0.056-0.125-0.132-0.232-0.225-0.321l-0-0zM4.968 28.514c0.001 0.010 0.001 0.021 0.001 0.033 0 0.112-0.046 0.212-0.121 0.284l-0 0c-0.076 0.064-0.174 0.102-0.282 0.102s-0.206-0.039-0.282-0.103l0.001 0.001c-0.074-0.072-0.12-0.172-0.12-0.283 0-0.012 0.001-0.024 0.002-0.036l-0 0.002v-2.198c-0.001-0.010-0.001-0.022-0.001-0.034 0-0.111 0.046-0.212 0.12-0.284l0-0c0.076-0.064 0.174-0.102 0.282-0.102s0.206 0.039 0.282 0.103l-0.001-0.001c0.075 0.072 0.121 0.172 0.121 0.284 0 0.012-0.001 0.024-0.002 0.036l0-0.002v2.197zM9.92 29.494v-4.159h-0.576l-0.756 2.201h-0.011l-0.762-2.201h-0.57v4.159h0.594v-2.53h0.011l0.582 1.788h0.296l0.587-1.788h0.010v2.53h0.595zM13.295 25.627c-0.091-0.103-0.207-0.181-0.336-0.227-0.122-0.041-0.262-0.065-0.408-0.065-0.008 0-0.016 0-0.025 0l0.001-0h-0.883v4.159h0.593v-1.624h0.306c0.185 0.008 0.368-0.030 0.534-0.113 0.136-0.076 0.246-0.184 0.323-0.314l0.002-0.004c0.068-0.111 0.115-0.234 0.136-0.362 0.024-0.157 0.034-0.315 0.032-0.473 0.006-0.199-0.014-0.399-0.058-0.594-0.042-0.15-0.118-0.278-0.219-0.382l0 0zM12.99 26.895c-0.003 0.079-0.022 0.154-0.056 0.22l0.001-0.003c-0.035 0.064-0.087 0.114-0.151 0.145l-0.002 0.001c-0.073 0.034-0.159 0.053-0.249 0.053-0.011 0-0.021-0-0.032-0.001l0.002 0h-0.271v-1.414h0.306c0.008-0 0.018-0.001 0.028-0.001 0.087 0 0.169 0.019 0.242 0.054l-0.003-0.001c0.061 0.036 0.109 0.089 0.138 0.152l0.001 0.002c0.033 0.072 0.050 0.152 0.052 0.232v0.276c0 0.097 0.006 0.197 0 0.286h-0.006zM16.103 25.336h-0.486l-0.917 4.159h0.593l0.174-0.894h0.808l0.174 0.894h0.592l-0.939-4.16zM15.556 28.034l0.292-1.508h0.011l0.29 1.508h-0.592zM19.932 27.841h-0.011l-0.895-2.506h-0.57v4.159h0.592v-2.501h0.012l0.906 2.501h0.558v-4.16h-0.592v2.506zM23.553 25.336l-0.477 1.654h-0.012l-0.477-1.654h-0.627l0.814 2.402v1.758h0.593v-1.758l0.814-2.401h-0.628zM0.037 30.669h0.286v0.801h0.194v-0.801h0.284v-0.164h-0.763v0.164zM2.439 30.505l-0.374 0.966h0.206l0.080-0.22h0.385l0.083 0.219h0.211l-0.384-0.966h-0.205zM2.408 31.088l0.131-0.358 0.131 0.358h-0.263zM4.812 31.114h0.223v0.124c-0.062 0.050-0.142 0.081-0.229 0.081h-0c-0.004 0-0.010 0-0.015 0-0.077 0-0.146-0.036-0.19-0.092l-0-0c-0.045-0.064-0.072-0.144-0.072-0.23 0-0.008 0-0.016 0.001-0.023l-0 0.001c0-0.214 0.093-0.322 0.278-0.322 0.006-0.001 0.013-0.001 0.020-0.001 0.095 0 0.175 0.065 0.198 0.154l0 0.001 0.191-0.037c-0.041-0.189-0.177-0.284-0.409-0.284-0.004-0-0.009-0-0.013-0-0.125 0-0.238 0.047-0.324 0.124l0-0c-0.087 0.086-0.14 0.204-0.14 0.336 0 0.013 0 0.025 0.002 0.038l-0-0.002c-0 0.007-0 0.015-0 0.022 0 0.13 0.047 0.249 0.125 0.341l-0.001-0.001c0.085 0.088 0.204 0.142 0.336 0.142 0.011 0 0.021-0 0.032-0.001l-0.001 0c0.005 0 0.010 0 0.015 0 0.152 0 0.291-0.059 0.394-0.154l-0 0v-0.38h-0.418v0.163zM7.236 30.505h-0.195v0.966h0.676v-0.165h-0.481v-0.801zM9.286 30.505h-0.196v0.966h0.196v-0.966zM11.289 31.15l-0.395-0.645h-0.189v0.966h0.181v-0.632l0.388 0.631h0.194v-0.966h-0.179v0.645zM13.101 31.045h0.481v-0.164h-0.481v-0.212h0.517v-0.164h-0.713v0.966h0.733v-0.165h-0.537v-0.261zM17.494 30.885h-0.38v-0.38h-0.194v0.966h0.194v-0.423h0.38v0.423h0.194v-0.966h-0.193v0.38zM19.316 31.045h0.483v-0.164h-0.483v-0.212h0.519v-0.164h-0.713v0.966h0.732v-0.165h-0.537v-0.261zM21.788 31.045c0.168-0.026 0.254-0.115 0.254-0.269 0.001-0.008 0.002-0.018 0.002-0.027 0-0.077-0.038-0.145-0.096-0.187l-0.001-0c-0.071-0.037-0.156-0.058-0.245-0.058-0.013 0-0.026 0-0.039 0.001l0.002-0h-0.409v0.966h0.193v-0.405h0.039c0.005-0 0.010-0 0.016-0 0.038 0 0.074 0.008 0.107 0.023l-0.002-0.001c0.028 0.018 0.052 0.042 0.069 0.071l0.211 0.307h0.232l-0.118-0.189c-0.053-0.094-0.125-0.172-0.211-0.23l-0.002-0.002zM21.592 30.912h-0.144v-0.243h0.153c0.012-0.001 0.026-0.002 0.041-0.002 0.056 0 0.109 0.009 0.16 0.026l-0.004-0.001c0.026 0.023 0.043 0.057 0.043 0.095 0 0.022-0.006 0.043-0.016 0.061l0-0.001c-0.009 0.017-0.022 0.031-0.036 0.042l-0 0c-0.048 0.015-0.104 0.024-0.161 0.024-0.013 0-0.025-0-0.037-0.001l0.002 0zM23.651 31.045h0.481v-0.164h-0.481v-0.212h0.519v-0.164h-0.714v0.966h0.733v-0.165h-0.537v-0.261z"></path>
</symbol>
<symbol id="icon-logo-3" viewBox="0 0 31 32">
<path  d="M4.769 31.216c0.023 0 0.044 0.010 0.060 0.025v0l0.153 0.161c-0.119 0.13-0.266 0.234-0.431 0.305-0.194 0.077-0.401 0.114-0.61 0.109-0.009 0-0.020 0-0.031 0-0.196 0-0.382-0.038-0.554-0.106l0.010 0.004c-0.332-0.134-0.588-0.396-0.709-0.724l-0.003-0.009c-0.061-0.164-0.097-0.353-0.097-0.55 0-0.008 0-0.015 0-0.023v0.001c-0-0.007-0-0.015-0-0.023 0-0.198 0.038-0.387 0.108-0.56l-0.004 0.010c0.067-0.165 0.168-0.316 0.298-0.444 0.13-0.126 0.286-0.224 0.459-0.29 0.188-0.069 0.389-0.104 0.592-0.102 0.010-0 0.022-0 0.034-0 0.185 0 0.362 0.034 0.525 0.097l-0.010-0.003c0.151 0.063 0.29 0.15 0.412 0.257l-0.129 0.171c-0.009 0.013-0.019 0.023-0.032 0.032l-0 0c-0.013 0.008-0.028 0.013-0.044 0.013-0.003 0-0.005-0-0.008-0l0 0c-0.021-0.002-0.039-0.008-0.056-0.019l0 0-0.069-0.045-0.096-0.059c-0.087-0.046-0.189-0.082-0.296-0.101l-0.006-0.001c-0.063-0.011-0.135-0.018-0.208-0.018-0.007 0-0.014 0-0.021 0h0.001c-0.004-0-0.009-0-0.014-0-0.148 0-0.289 0.028-0.418 0.079l0.008-0.003c-0.13 0.050-0.241 0.123-0.333 0.215l0-0c-0.095 0.099-0.169 0.216-0.216 0.342-0.054 0.146-0.080 0.299-0.079 0.452-0.002 0.156 0.025 0.313 0.079 0.46 0.047 0.127 0.119 0.242 0.212 0.342 0.088 0.092 0.196 0.164 0.318 0.211 0.125 0.049 0.259 0.074 0.394 0.073 0.078 0.001 0.156-0.004 0.234-0.015 0.127-0.015 0.247-0.057 0.354-0.122 0.054-0.034 0.104-0.071 0.151-0.113 0.019-0.018 0.045-0.029 0.073-0.030h0zM9.191 30.409c0.002 0.194-0.034 0.386-0.104 0.567-0.067 0.172-0.165 0.319-0.288 0.44l-0 0c-0.126 0.123-0.276 0.222-0.444 0.286l-0.009 0.003c-0.173 0.065-0.373 0.102-0.582 0.102s-0.409-0.037-0.594-0.106l0.012 0.004c-0.175-0.069-0.325-0.167-0.45-0.29l0 0c-0.123-0.123-0.222-0.271-0.288-0.436l-0.003-0.009c-0.066-0.169-0.103-0.364-0.103-0.568s0.038-0.399 0.107-0.579l-0.004 0.011c0.065-0.166 0.164-0.318 0.29-0.447 0.126-0.119 0.276-0.214 0.441-0.276l0.009-0.003c0.173-0.066 0.373-0.104 0.582-0.104s0.409 0.038 0.594 0.108l-0.012-0.004c0.17 0.066 0.324 0.164 0.452 0.29 0.127 0.127 0.224 0.275 0.289 0.439 0.071 0.182 0.106 0.376 0.104 0.571zM8.788 30.409c0-0.007 0-0.016 0-0.025 0-0.155-0.027-0.303-0.076-0.441l0.003 0.009c-0.087-0.257-0.278-0.457-0.522-0.555l-0.006-0.002c-0.126-0.047-0.271-0.075-0.423-0.075s-0.297 0.027-0.432 0.078l0.009-0.003c-0.251 0.099-0.443 0.3-0.528 0.55l-0.002 0.006c-0.097 0.298-0.097 0.615 0 0.912 0.087 0.256 0.279 0.456 0.524 0.552l0.006 0.002c0.273 0.097 0.573 0.097 0.846 0 0.124-0.048 0.234-0.121 0.324-0.214 0.092-0.099 0.162-0.216 0.205-0.341 0.052-0.147 0.076-0.301 0.073-0.456zM12.207 30.887l0.040 0.102c0.015-0.037 0.028-0.069 0.044-0.103s0.031-0.067 0.050-0.1l0.978-1.695c0.019-0.029 0.037-0.048 0.056-0.052 0.020-0.006 0.044-0.010 0.068-0.010 0.004 0 0.008 0 0.013 0l-0.001-0h0.289v2.756h-0.342v-2.112c-0.001-0.014-0.001-0.031-0.001-0.047s0.001-0.033 0.002-0.049l-0 0.002-0.984 1.718c-0.013 0.026-0.033 0.048-0.057 0.062l-0.001 0c-0.024 0.015-0.052 0.023-0.083 0.023-0 0-0.001 0-0.001 0h-0.055c-0.030 0-0.060-0.007-0.084-0.022s-0.045-0.037-0.058-0.062l-0-0.001-1.012-1.729v2.212h-0.331v-2.75h0.289c0.004-0 0.009-0 0.014-0 0.024 0 0.046 0.003 0.068 0.010l-0.002-0c0.024 0.011 0.042 0.029 0.053 0.052l0 0.001 0.999 1.697c0.018 0.028 0.035 0.060 0.048 0.094l0.001 0.004zM15.888 30.75v1.032h-0.383v-2.751h0.854c0.161-0.003 0.322 0.017 0.476 0.060 0.124 0.034 0.239 0.092 0.337 0.172 0.085 0.074 0.15 0.167 0.191 0.27 0.045 0.112 0.067 0.231 0.065 0.352 0.002 0.121-0.022 0.24-0.071 0.352-0.049 0.109-0.118 0.201-0.205 0.274l-0.001 0.001c-0.095 0.080-0.209 0.143-0.333 0.181l-0.007 0.002c-0.149 0.045-0.305 0.067-0.461 0.063l-0.463-0.007zM15.888 30.454h0.463c0.101 0.002 0.201-0.013 0.297-0.042 0.083-0.027 0.154-0.068 0.215-0.12l-0.001 0.001c0.056-0.049 0.1-0.11 0.129-0.178l0.001-0.003c0.029-0.066 0.046-0.144 0.046-0.225 0-0.002 0-0.004-0-0.007v0c0.001-0.009 0.001-0.020 0.001-0.031 0-0.152-0.067-0.288-0.173-0.381l-0.001-0c-0.126-0.094-0.285-0.15-0.457-0.15-0.021 0-0.041 0.001-0.061 0.002l0.003-0h-0.463v1.134zM21.033 31.786h-0.302c-0.002 0-0.004 0-0.006 0-0.029 0-0.057-0.010-0.079-0.026l0 0c-0.021-0.017-0.038-0.038-0.049-0.063l-0-0.001-0.26-0.665h-1.308l-0.27 0.665c-0.010 0.025-0.027 0.046-0.047 0.062l-0 0c-0.022 0.017-0.050 0.027-0.081 0.027-0.002 0-0.004-0-0.006-0h-0.302l1.148-2.756h0.398l1.164 2.756zM19.138 30.763h1.079l-0.455-1.122c-0.030-0.070-0.059-0.157-0.083-0.245l-0.003-0.014-0.045 0.144c-0.015 0.049-0.029 0.088-0.045 0.126l0.003-0.009-0.452 1.12zM22.686 29.043c0.023 0.012 0.043 0.028 0.058 0.049l1.674 2.077v-2.139h0.342v2.755h-0.191c-0.001 0-0.003 0-0.005 0-0.027 0-0.052-0.006-0.074-0.017l0.001 0c-0.024-0.013-0.044-0.030-0.061-0.050l-0-0-1.673-2.076c0.002 0.032 0.002 0.064 0 0.095v2.049h-0.342v-2.756h0.202c0.024-0.001 0.047 0.004 0.068 0.013zM27.583 30.69v1.094h-0.383v-1.094l-1.058-1.66h0.342c0.030-0.002 0.060 0.007 0.083 0.024 0.021 0.017 0.038 0.038 0.052 0.061l0.001 0.001 0.662 1.070c0.026 0.046 0.049 0.088 0.068 0.128s0.034 0.078 0.048 0.117l0.050-0.119c0.019-0.043 0.040-0.085 0.066-0.126l0.653-1.078c0.014-0.022 0.031-0.041 0.050-0.058l0-0c0.021-0.017 0.048-0.028 0.077-0.028 0.002 0 0.004 0 0.005 0h0.347l-1.060 1.667zM12.017 24.406c0.167 0.020 0.335 0.037 0.506 0.052 2.582-1.101 4.767-2.903 6.281-5.18s2.291-4.93 2.231-7.624l-2.846-2.713c0.189 0.894 0.297 1.921 0.297 2.974 0 2.015-0.396 3.937-1.115 5.694l0.036-0.1c-1.090 2.731-2.957 5.12-5.39 6.899z"></path>
<path d="M11.001 24.28l0.077 0.015c2.6-1.773 4.583-4.247 5.692-7.104 0.627-1.564 0.99-3.377 0.99-5.275 0-1.296-0.17-2.553-0.488-3.75l0.023 0.102-4.054-3.862c1.269 2.396 2.014 5.238 2.014 8.254 0 0.702-0.040 1.395-0.119 2.076l0.008-0.083c-0.396 3.518-1.833 6.857-4.143 9.628zM24.75 14.837c-0.689 2.962-2.362 5.632-4.77 7.616-0.665 0.554-1.406 1.067-2.191 1.511l-0.075 0.039c2.039-0.578 3.804-1.556 5.285-2.852l-0.016 0.013c1.465-1.281 2.625-2.875 3.38-4.679l0.031-0.084-1.645-1.565z"></path>
<path  d="M24.105 14.401l-2.34-2.23c-0.053 2.681-0.865 5.162-2.23 7.25l0.032-0.053c-1.394 2.169-3.373 3.943-5.729 5.137h0.012c0.525 0 1.049-0.030 1.571-0.089 2.251-0.883 4.15-2.237 5.65-3.95l0.014-0.017c1.454-1.661 2.512-3.704 3.005-5.959l0.016-0.089zM11.34 2.777l-2.793-2.664c-2.497 0.918-4.644 2.534-6.16 4.635s-2.333 4.59-2.34 7.14c0.010 2.817 1.005 5.552 2.829 7.769s4.372 3.794 7.242 4.476c2.562-2.973 4.061-6.647 4.281-10.488s-0.851-7.648-3.059-10.869zM30.558 13.991c-0.010-3.343-1.409-6.546-3.89-8.91s-5.843-3.696-9.352-3.706c-1.622-0.002-3.23 0.284-4.742 0.841l17.099 16.29c0.56-1.335 0.885-2.887 0.885-4.515 0-0 0-0 0-0v0z"></path>
</symbol>
<symbol id="icon-logo-4" viewBox="0 0 60 32">
<path  d="M9.276 9.661h-0.002c-1.683 0-3.048 1.33-3.048 2.971v0.002c0 1.641 1.365 2.971 3.048 2.971h0.002c1.683 0 3.049-1.33 3.049-2.971v-0.002c0-1.641-1.366-2.971-3.049-2.971zM31.776 8.711c-0.005-2.279-0.936-4.463-2.59-6.075-1.651-1.611-3.893-2.519-6.231-2.524-2.339 0.004-4.581 0.912-6.236 2.523s-2.585 3.797-2.59 6.076v12.565s17.645-1.915 17.647-12.564v-0.002zM0.046 25.401c0.008 1.659 0.697 3.155 1.801 4.226l0.002 0.001c1.121 1.086 2.65 1.756 4.336 1.758h0c1.686-0.001 3.215-0.671 4.337-1.759l-0.002 0.002c1.106-1.071 1.795-2.567 1.804-4.224v-8.746s-12.278 1.335-12.278 8.743zM6.186 26.969c-0 0-0.001 0-0.001 0-0.332 0-0.64-0.099-0.898-0.268l0.006 0.004c-0.262-0.171-0.466-0.41-0.589-0.693l-0.004-0.010c-0.077-0.177-0.122-0.382-0.122-0.598 0-0.109 0.011-0.215 0.033-0.317l-0.002 0.010c0.067-0.317 0.222-0.591 0.439-0.802l0-0c0.22-0.213 0.5-0.365 0.814-0.427l0.010-0.002c0.312-0.060 0.635-0.030 0.929 0.089s0.545 0.319 0.722 0.577c0.17 0.244 0.271 0.546 0.271 0.872 0 0.217-0.045 0.423-0.125 0.61l0.004-0.010c-0.080 0.191-0.199 0.364-0.348 0.51s-0.327 0.262-0.522 0.342c-0.182 0.075-0.393 0.119-0.614 0.119-0.001 0-0.002 0-0.003 0h0v-0.005zM18.717 25.996h-1.255v1.298h-0.654v-3.175h2.067v0.53h-1.412v0.82h1.255v0.528zM21.861 25.778c0 0.313-0.055 0.587-0.166 0.822s-0.269 0.417-0.475 0.545c-0.194 0.121-0.43 0.192-0.682 0.192-0.009 0-0.017-0-0.026-0l0.001 0c-0.263 0-0.498-0.063-0.704-0.19-0.208-0.131-0.373-0.314-0.476-0.533l-0.003-0.008c-0.109-0.23-0.173-0.5-0.173-0.785 0-0.009 0-0.019 0-0.028l-0 0.001v-0.157c0-0.313 0.056-0.587 0.168-0.824 0.113-0.238 0.272-0.421 0.477-0.548 0.207-0.128 0.442-0.192 0.707-0.192s0.499 0.064 0.704 0.192c0.206 0.127 0.365 0.309 0.478 0.548 0.113 0.237 0.17 0.511 0.17 0.822v0.141zM21.199 25.634c0-0.333-0.060-0.586-0.179-0.759-0.106-0.157-0.284-0.26-0.485-0.26-0.009 0-0.018 0-0.027 0.001l0.001-0c-0.007-0-0.016-0.001-0.025-0.001-0.201 0-0.378 0.102-0.482 0.256l-0.001 0.002c-0.119 0.17-0.179 0.42-0.181 0.75v0.154c0 0.324 0.060 0.576 0.179 0.755s0.29 0.268 0.514 0.268c0.008 0 0.017 0.001 0.026 0.001 0.2 0 0.375-0.101 0.479-0.255l0.001-0.002c0.118-0.173 0.177-0.424 0.179-0.755v-0.155zM23.982 26.46c0-0.006 0-0.012 0-0.018 0-0.107-0.051-0.203-0.13-0.264l-0.001-0.001c-0.087-0.067-0.244-0.137-0.471-0.21-0.209-0.065-0.388-0.139-0.558-0.227l0.019 0.009c-0.36-0.194-0.54-0.457-0.54-0.787 0-0.171 0.048-0.324 0.144-0.458 0.098-0.135 0.236-0.241 0.417-0.316s0.385-0.114 0.61-0.114c0.227 0 0.429 0.042 0.606 0.124s0.315 0.197 0.412 0.347c0.099 0.15 0.149 0.32 0.149 0.511h-0.655c0-0.146-0.045-0.258-0.137-0.338-0.092-0.082-0.22-0.122-0.386-0.122-0.16 0-0.284 0.034-0.372 0.102-0.082 0.058-0.134 0.152-0.134 0.259 0 0.003 0 0.005 0 0.008v-0c0 0.103 0.052 0.19 0.156 0.259s0.258 0.135 0.46 0.196c0.372 0.112 0.643 0.251 0.813 0.417s0.255 0.372 0.255 0.619c0 0.275-0.104 0.49-0.311 0.647-0.208 0.156-0.488 0.233-0.839 0.233-0.245 0-0.467-0.045-0.668-0.132-0.189-0.080-0.344-0.207-0.458-0.366l-0.002-0.003c-0.099-0.147-0.157-0.328-0.157-0.522 0-0.006 0-0.013 0-0.019v0.001h0.656c0 0.35 0.209 0.525 0.627 0.525 0.156 0 0.278-0.031 0.365-0.094 0.080-0.057 0.131-0.149 0.131-0.254 0-0.004-0-0.009-0-0.013l0 0.001zM27.473 24.649h-0.973v2.645h-0.654v-2.645h-0.959v-0.53h2.586v0.53zM29.758 25.918h-1.255v0.851h1.474v0.525h-2.128v-3.175h2.124v0.53h-1.469v0.757h1.255v0.512zM31.535 26.131h-0.521v1.162h-0.655v-3.175h1.18c0.375 0 0.664 0.083 0.868 0.251s0.305 0.403 0.305 0.708c0 0.217-0.047 0.397-0.141 0.543-0.105 0.152-0.25 0.271-0.419 0.341l-0.006 0.002 0.687 1.298v0.030h-0.702l-0.595-1.161zM31.014 25.602h0.528c0.164 0 0.291-0.041 0.382-0.124 0.084-0.082 0.135-0.196 0.135-0.322 0-0.009-0-0.017-0.001-0.026l0 0.001c0-0.149-0.043-0.267-0.129-0.353-0.084-0.086-0.214-0.129-0.39-0.129h-0.525v0.953zM34.977 26.174v1.119h-0.654v-3.175h1.238c0.238 0 0.448 0.044 0.628 0.131 0.182 0.087 0.321 0.211 0.418 0.372s0.147 0.342 0.147 0.548c0 0.311-0.107 0.557-0.321 0.737-0.212 0.179-0.506 0.268-0.883 0.268h-0.575zM34.977 25.645h0.584c0.173 0 0.305-0.041 0.394-0.122 0.092-0.082 0.138-0.198 0.138-0.349 0-0.007 0.001-0.015 0.001-0.023 0-0.137-0.053-0.261-0.139-0.355l0 0c-0.092-0.096-0.218-0.145-0.38-0.149h-0.599v0.997zM39.115 25.918h-1.255v0.851h1.474v0.525h-2.128v-3.175h2.124v0.53h-1.47v0.757h1.256v0.512zM42.151 24.649h-0.973v2.645h-0.654v-2.645h-0.959v-0.53h2.586v0.53zM44.435 25.918h-1.256v0.851h1.474v0.525h-2.127v-3.175h2.123v0.53h-1.469v0.757h1.255v0.512zM46.212 26.131h-0.521v1.162h-0.655v-3.175h1.18c0.375 0 0.665 0.083 0.868 0.251s0.305 0.403 0.305 0.708c0 0.217-0.047 0.397-0.141 0.543-0.105 0.152-0.25 0.27-0.419 0.341l-0.006 0.002 0.687 1.298v0.030h-0.703l-0.595-1.161zM45.692 25.602h0.527c0.164 0 0.292-0.041 0.382-0.124 0.084-0.082 0.136-0.197 0.136-0.323 0-0.008-0-0.017-0.001-0.025l0 0.001c0-0.149-0.043-0.267-0.129-0.353-0.084-0.086-0.214-0.129-0.391-0.129h-0.525v0.953zM49.535 26.46c0-0.006 0.001-0.012 0.001-0.018 0-0.107-0.051-0.203-0.13-0.264l-0.001-0.001c-0.088-0.067-0.244-0.137-0.471-0.21-0.209-0.065-0.388-0.139-0.558-0.227l0.019 0.009c-0.36-0.194-0.54-0.457-0.54-0.787 0-0.171 0.048-0.324 0.144-0.458 0.097-0.135 0.236-0.241 0.417-0.316s0.385-0.114 0.61-0.114c0.227 0 0.429 0.042 0.606 0.124s0.315 0.197 0.412 0.347c0.099 0.15 0.149 0.32 0.149 0.511h-0.655c0-0.146-0.045-0.258-0.137-0.338-0.092-0.082-0.22-0.122-0.386-0.122-0.16 0-0.284 0.034-0.372 0.102-0.082 0.058-0.134 0.152-0.134 0.259 0 0.003 0 0.005 0 0.008v-0c0 0.103 0.052 0.19 0.156 0.259s0.258 0.135 0.46 0.196c0.372 0.112 0.643 0.251 0.813 0.417s0.255 0.372 0.255 0.619c0 0.275-0.104 0.49-0.312 0.647-0.208 0.156-0.487 0.233-0.839 0.233-0.244 0-0.467-0.045-0.667-0.132-0.189-0.080-0.344-0.207-0.458-0.366l-0.002-0.003c-0.099-0.147-0.157-0.328-0.157-0.522 0-0.006 0-0.013 0-0.019v0.001h0.656c0 0.35 0.209 0.525 0.627 0.525 0.156 0 0.277-0.031 0.365-0.094 0.079-0.057 0.13-0.149 0.13-0.253 0-0.005-0-0.009-0-0.014l0 0.001z"></path>
</symbol>
<symbol id="icon-logo-5" viewBox="0 0 40 32">
<path  d="M3.033 26.286c0.153 0.191 0.235 0.429 0.231 0.673 0.001 0.016 0.001 0.034 0.001 0.052 0 0.317-0.138 0.602-0.358 0.798l-0.001 0.001c-0.298 0.226-0.667 0.336-1.039 0.311h-1.826v-4.269h1.789c0.030-0.002 0.066-0.003 0.102-0.003 0.334 0 0.643 0.108 0.894 0.29l-0.004-0.003c0.213 0.18 0.348 0.448 0.348 0.747 0 0.018-0.001 0.036-0.001 0.054l0-0.003c0.011 0.236-0.063 0.467-0.207 0.653-0.139 0.169-0.331 0.287-0.545 0.333 0.242 0.045 0.461 0.174 0.617 0.365zM0.891 25.641h0.764c0.174 0.013 0.347-0.037 0.487-0.142 0.102-0.093 0.166-0.226 0.166-0.375 0-0.015-0.001-0.029-0.002-0.044l0 0.002c0.001-0.011 0.001-0.024 0.001-0.037 0-0.15-0.063-0.285-0.163-0.38l-0-0c-0.121-0.091-0.275-0.146-0.441-0.146-0.021 0-0.042 0.001-0.062 0.003l0.003-0h-0.752v1.12zM2.217 27.279c0.112-0.098 0.182-0.24 0.182-0.399 0-0.012-0-0.024-0.001-0.036l0 0.002c0.001-0.009 0.001-0.020 0.001-0.031 0-0.162-0.072-0.308-0.185-0.407l-0.001-0.001c-0.129-0.097-0.293-0.156-0.47-0.156-0.018 0-0.035 0.001-0.053 0.002l0.002-0h-0.801v1.175h0.812c0.183 0.010 0.364-0.042 0.513-0.149zM6.689 28.121l-0.994-1.668h-0.375v1.669h-0.855v-4.269h1.62c0.033-0.003 0.073-0.004 0.112-0.004 0.388 0 0.743 0.138 1.019 0.369l-0.003-0.002c0.24 0.246 0.389 0.582 0.389 0.954 0 0.306-0.101 0.589-0.271 0.817l0.003-0.004c-0.2 0.23-0.473 0.383-0.773 0.434l1.060 1.707h-0.931zM5.321 25.871h0.7c0.487 0 0.729-0.215 0.729-0.647 0.001-0.011 0.001-0.024 0.001-0.037 0-0.172-0.069-0.329-0.18-0.444l0 0c-0.13-0.109-0.3-0.176-0.484-0.176-0.023 0-0.046 0.001-0.069 0.003l0.003-0h-0.709l0.009 1.3zM11.369 27.262h-1.706l-0.301 0.86h-0.897l1.567-4.223h0.969l1.56 4.222h-0.897l-0.295-0.859zM11.14 26.615l-0.623-1.802-0.623 1.802h1.247zM17.225 28.121h-0.85l-1.905-2.903v2.903h-0.848v-4.269h0.848l1.905 2.92v-2.92h0.85v4.269zM22.075 27.1c-0.178 0.323-0.441 0.581-0.759 0.748l-0.010 0.005c-0.37 0.187-0.78 0.28-1.195 0.269h-1.513v-4.269h1.513c0.020-0.001 0.043-0.001 0.067-0.001 0.411 0 0.799 0.097 1.142 0.27l-0.015-0.007c0.325 0.165 0.593 0.424 0.769 0.745 0.168 0.326 0.266 0.712 0.266 1.12s-0.098 0.794-0.273 1.134l0.007-0.014zM21.102 26.997c0.234-0.272 0.376-0.629 0.376-1.019s-0.142-0.747-0.378-1.021l0.002 0.002c-0.258-0.227-0.598-0.366-0.971-0.366-0.032 0-0.064 0.001-0.096 0.003l0.004-0h-0.59v2.763h0.59c0.027 0.002 0.060 0.003 0.092 0.003 0.373 0 0.713-0.139 0.973-0.367l-0.002 0.001zM11.9 0.101s10.968 4.157 10.735 10.173v10.175s-10.959-4.159-10.731-10.175l-0.005-10.173zM32.407 18.067c1.963-1.372 4.336-2.296 6.902-2.572l0.066-0.006v-3.185c-2.932 1.156-5.324 3.159-6.934 5.704l-0.035 0.059z"></path>
<path  d="M31.162 19.027c1.713-3.414 4.595-6.030 8.111-7.357l0.103-0.034v-9.178s-15.621 5.922-15.291 14.489v14.487s0.696-0.265 1.791-0.761c0-0.463 0-0.93 0.050-1.4 0.343-4.118 2.294-7.723 5.215-10.229l0.020-0.017z"></path>
<path  d="M29.677 24.409c0.082-1.005 0.265-1.999 0.547-2.967-1.996 2.351-3.234 5.4-3.308 8.736l-0 0.016c1.272-0.612 2.256-1.142 3.217-1.706l-0.213 0.116c-0.187-0.889-0.294-1.911-0.294-2.958 0-0.435 0.018-0.866 0.055-1.292l-0.004 0.056zM30.298 24.461c-0.031 0.352-0.048 0.761-0.048 1.174 0 0.928 0.088 1.835 0.256 2.714l-0.014-0.090c4.267-2.564 9.062-6.525 8.877-11.312v-0.417c-3.178 0.367-5.98 1.751-8.125 3.813l0.005-0.004c-0.491 1.209-0.829 2.609-0.947 4.071l-0.003 0.051z"></path>
</symbol>
<symbol id="icon-logo-6" viewBox="0 0 62 32">
<path  d="M31.167 14.96c-0.251-0.36-0.401-0.806-0.401-1.288 0-0.051 0.002-0.101 0.005-0.151l-0 0.007v-2.074c0-0.637 0.131-1.12 0.394-1.45s0.715-0.495 1.356-0.494c0.602 0 1.030 0.141 1.282 0.422 0.275 0.359 0.41 0.799 0.378 1.241v0.488h-1.076v-0.494c0-0.019 0.001-0.042 0.001-0.064 0-0.148-0.012-0.293-0.034-0.435l0.002 0.016c-0.017-0.115-0.073-0.214-0.153-0.286l-0-0c-0.095-0.071-0.215-0.114-0.345-0.114-0.016 0-0.031 0.001-0.047 0.002l0.002-0c-0.013-0.001-0.029-0.002-0.045-0.002-0.138 0-0.265 0.045-0.367 0.121l0.002-0.001c-0.090 0.081-0.154 0.19-0.178 0.313l-0.001 0.004c-0.031 0.169-0.045 0.341-0.042 0.513v2.518c-0.017 0.243 0.031 0.486 0.138 0.707 0.055 0.075 0.128 0.134 0.212 0.171l0.003 0.001c0.063 0.027 0.136 0.043 0.213 0.043 0.023 0 0.045-0.001 0.067-0.004l-0.003 0c0.013 0.001 0.029 0.002 0.044 0.002 0.128 0 0.245-0.044 0.338-0.117l-0.001 0.001c0.084-0.079 0.142-0.184 0.16-0.303l0-0.003c0.022-0.136 0.034-0.293 0.034-0.452 0-0.018-0-0.037-0-0.055l0 0.003v-0.511h1.077v0.466c0.003 0.038 0.004 0.083 0.004 0.128 0 0.441-0.141 0.85-0.38 1.182l0.004-0.006c-0.247 0.308-0.669 0.463-1.288 0.463s-1.088-0.165-1.354-0.506zM35.651 14.981c-0.272-0.323-0.408-0.793-0.408-1.416v-2.182c0-0.616 0.136-1.083 0.408-1.4s0.726-0.474 1.364-0.473c0.633 0 1.085 0.158 1.358 0.473 0.271 0.317 0.41 0.783 0.41 1.4v2.182c0 0.616-0.139 1.089-0.415 1.414s-0.726 0.487-1.353 0.487c-0.626 0-1.090-0.164-1.364-0.485zM37.517 14.457c0.097-0.202 0.142-0.424 0.129-0.646v-2.672c0.001-0.021 0.002-0.047 0.002-0.072 0-0.204-0.048-0.397-0.133-0.569l0.003 0.007c-0.056-0.076-0.13-0.136-0.216-0.173l-0.003-0.001c-0.062-0.027-0.135-0.042-0.211-0.042-0.026 0-0.051 0.002-0.076 0.005l0.003-0c-0.022-0.003-0.047-0.005-0.073-0.005-0.077 0-0.15 0.016-0.216 0.044l0.004-0.001c-0.090 0.038-0.165 0.098-0.22 0.172l-0.001 0.001c-0.097 0.198-0.142 0.415-0.129 0.633v2.685c-0.014 0.221 0.031 0.443 0.129 0.646 0.063 0.067 0.138 0.121 0.223 0.158l0.004 0.002c0.081 0.035 0.175 0.056 0.275 0.056 0.199 0 0.378-0.083 0.506-0.216l0-0v-0.013zM40.078 9.574h1.16l0.872 4.026 0.892-4.026h1.128l0.113 5.812h-0.833l-0.090-4.040-0.861 4.040h-0.669l-0.892-4.054-0.083 4.054h-0.842l0.104-5.812zM45.543 9.574h1.806c1.040 0 1.56 0.55 1.56 1.65 0 1.054-0.547 1.581-1.643 1.579h-0.615v2.583h-1.115l0.007-5.812zM47.085 12.057c0.111 0.014 0.223 0.004 0.328-0.028 0.11-0.033 0.205-0.086 0.286-0.156l-0.001 0.001c0.128-0.196 0.184-0.427 0.16-0.657 0.001-0.020 0.001-0.043 0.001-0.067 0-0.163-0.020-0.322-0.057-0.474l0.003 0.014c-0.017-0.062-0.045-0.115-0.083-0.161l0.001 0.001c-0.039-0.047-0.086-0.087-0.139-0.116l-0.002-0.001c-0.129-0.059-0.279-0.094-0.438-0.094-0.021 0-0.042 0.001-0.063 0.002l0.003-0h-0.432v1.737h0.432zM50.517 9.574h1.197l1.229 5.812h-1.040l-0.243-1.34h-1.068l-0.25 1.34h-1.055l1.229-5.812zM51.54 13.372l-0.417-2.439-0.417 2.44h0.834zM53.935 9.574h0.781l1.494 3.315v-3.315h0.925v5.812h-0.742l-1.503-3.461v3.461h-0.957l0.002-5.812zM59.302 13.169l-1.242-3.587h1.046l0.758 2.305 0.711-2.305h1.023l-1.226 3.587v2.216h-1.070v-2.216zM32.888 17.927v0.304h-0.909v2.362h-0.381v-2.362h-0.914v-0.304h2.205zM35.74 20.593h-0.294c-0.003 0-0.005 0-0.008 0-0.028 0-0.054-0.010-0.075-0.026l0 0c-0.022-0.015-0.038-0.036-0.048-0.060l-0-0.001-0.264-0.633h-1.262l-0.263 0.633c-0.008 0.028-0.022 0.052-0.040 0.072l0-0c-0.021 0.016-0.048 0.026-0.077 0.026-0.002 0-0.004-0-0.005-0h-0.294l1.114-2.666h0.388l1.128 2.655zM33.894 19.603h1.053l-0.446-1.085c-0.028-0.067-0.057-0.15-0.080-0.236l-0.003-0.014-0.042 0.141-0.041 0.112-0.441 1.082zM37.662 20.331c0.070 0.003 0.139 0.003 0.209 0 0.061-0.006 0.12-0.017 0.179-0.031 0.064-0.015 0.117-0.032 0.17-0.052l-0.009 0.003c0.049-0.019 0.098-0.042 0.15-0.065v-0.6h-0.447c-0.001 0-0.003 0-0.005 0-0.021 0-0.041-0.008-0.056-0.021l0 0c-0.014-0.011-0.022-0.028-0.022-0.047 0-0 0-0.001 0-0.002v0-0.205h0.865v1.021c-0.212 0.145-0.467 0.243-0.742 0.272l-0.007 0.001c-0.096 0.011-0.208 0.017-0.32 0.017-0.002 0-0.004 0-0.005 0h0c-0.004 0-0.008 0-0.013 0-0.197 0-0.386-0.037-0.56-0.103l0.011 0.004c-0.173-0.067-0.321-0.161-0.446-0.279l0.001 0.001c-0.12-0.117-0.218-0.258-0.285-0.414l-0.003-0.008c-0.065-0.159-0.103-0.343-0.103-0.536 0-0.006 0-0.012 0-0.018v0.001c-0-0.005-0-0.011-0-0.016 0-0.195 0.037-0.38 0.105-0.551l-0.004 0.010c0.064-0.158 0.162-0.302 0.287-0.422 0.125-0.117 0.273-0.211 0.437-0.274l0.009-0.003c0.191-0.067 0.394-0.102 0.598-0.099 0.104 0 0.207 0.007 0.31 0.023 0.090 0.014 0.179 0.037 0.264 0.067 0.079 0.028 0.153 0.063 0.223 0.106 0.069 0.042 0.134 0.088 0.195 0.139l-0.108 0.165c-0.009 0.015-0.021 0.027-0.036 0.036l-0 0c-0.015 0.009-0.032 0.014-0.051 0.014h-0c-0.026-0.001-0.049-0.008-0.069-0.021l0.001 0c-0.044-0.023-0.080-0.044-0.115-0.066l0.005 0.003c-0.042-0.026-0.092-0.050-0.143-0.070l-0.006-0.002c-0.057-0.023-0.126-0.043-0.197-0.058l-0.008-0.001c-0.081-0.015-0.173-0.023-0.268-0.023-0.005 0-0.011 0-0.016 0h0.001c-0.004-0-0.008-0-0.013-0-0.15 0-0.293 0.027-0.425 0.077l0.008-0.003c-0.128 0.049-0.237 0.121-0.328 0.211l0-0c-0.093 0.096-0.163 0.209-0.207 0.332-0.047 0.132-0.075 0.285-0.075 0.444s0.027 0.312 0.078 0.454l-0.003-0.009c0.049 0.125 0.125 0.24 0.223 0.336 0.092 0.091 0.202 0.163 0.326 0.211 0.142 0.047 0.292 0.064 0.442 0.053zM41.215 20.289h1.217v0.304h-1.59v-2.666h0.381l-0.009 2.362zM43.699 20.593h-0.381v-2.666h0.381v2.666zM45.117 17.939c0.022 0.013 0.042 0.029 0.058 0.049l1.63 2.010c-0.001-0.014-0.002-0.031-0.002-0.048s0.001-0.033 0.002-0.050l-0 0.002v-1.986h0.333v2.676h-0.192c-0.004 0-0.010 0.001-0.015 0.001-0.025 0-0.048-0.005-0.069-0.015l0.001 0c-0.023-0.014-0.043-0.031-0.059-0.051l-0-0-1.628-2.007v2.072h-0.319v-2.666h0.198c0 0 0 0 0.001 0 0.022 0 0.044 0.005 0.063 0.013l-0.001-0zM49.944 17.927v0.294h-1.351v0.88h1.095v0.283h-1.095v0.909h1.351v0.294h-1.743v-2.659h1.743zM9.994 1.464l16.928 4.551v15.946l-16.929-4.549v-15.948zM8.908 0.105v18.082l19.098 5.135v-18.080l-19.098-5.137z"></path>
<path  d="M19.144 31.715l-19.101-5.139v-18.080l19.101 5.139v18.080z"></path>
<path  d="M9.224 1.259l16.708 4.494-7.106 6.728-16.71-4.495 7.107-6.727zM8.908 0.106l-8.865 8.391 19.1 5.138 8.863-8.392-19.098-5.139zM20.218 30.699l7.787-7.375-7.788-2.096v9.47z"></path>
</symbol>
<symbol id="icon-Mail" viewBox="0 0 45 32">
<path d="M38.832 0.403h-34.667c-2.205 0-4 1.675-4 3.733v22.405c0 2.059 1.795 3.733 4 3.733h34.667c2.205 0 4-1.675 4-3.733v-22.403c0-2.061-1.795-3.733-4-3.733zM38.832 2.893c0.181 0 0.355 0.035 0.512 0.096l-17.845 14.437-17.845-14.44c0.152-0.061 0.327-0.096 0.511-0.096 0 0 0 0 0.001 0h34.667zM38.832 27.787h-34.667c-0.736 0-1.333-0.56-1.333-1.245v-20.923l17.792 14.395c0.253 0.203 0.563 0.304 0.875 0.304 0.002 0 0.005 0 0.008 0 0.329 0 0.631-0.115 0.869-0.306l-0.003 0.002 17.792-14.395v20.923c0 0.688-0.597 1.245-1.333 1.245z"></path>
</symbol>
<symbol id="icon-smartphone" viewBox="0 0 22 32">
<path  d="M17.124 0.302h-14c-1.654 0-3 1.256-3 2.8v24.272c0 1.544 1.346 2.8 3 2.8h14c1.654 0 3-1.256 3-2.8v-24.272c0-1.544-1.346-2.8-3-2.8zM3.124 2.17h14c0.552 0 1 0.418 1 0.932v19.604h-16v-19.604c0-0.514 0.448-0.932 1-0.932zM17.124 28.308h-14c-0.552 0-1-0.42-1-0.934v-2.8h16v2.8c0 0.516-0.448 0.934-1 0.934z"></path>
<path  d="M4.832 25.78c0.18 0.163 0.293 0.399 0.293 0.66s-0.113 0.497-0.292 0.659l-0.001 0.001c-0.186 0.17-0.435 0.275-0.708 0.275s-0.522-0.104-0.709-0.275l0.001 0.001c-0.18-0.163-0.293-0.399-0.293-0.66s0.113-0.497 0.292-0.659l0.001-0.001c0.186-0.17 0.435-0.275 0.708-0.275s0.522 0.104 0.709 0.275l-0.001-0.001z"></path>
</symbol>
<symbol id="icon-Twiter" viewBox="0 0 32 32">
<path d="M22.8 11.342c-0.489 0.219-1.056 0.381-1.649 0.458l-0.030 0.003c0.604-0.363 1.058-0.924 1.276-1.592l0.006-0.021c-0.532 0.321-1.152 0.566-1.812 0.7l-0.037 0.006c-0.533-0.569-1.29-0.924-2.129-0.924-1.61 0-2.915 1.305-2.915 2.915 0 0.001 0 0.002 0 0.003v-0c0 0.231 0.020 0.453 0.068 0.664-2.424-0.118-4.569-1.28-6.010-3.049-0.25 0.422-0.399 0.93-0.4 1.473v0c0 1.010 0.52 1.905 1.295 2.423-0.485-0.013-0.937-0.145-1.331-0.367l0.014 0.007v0.032c0.002 1.406 0.994 2.58 2.317 2.862l0.019 0.003c-0.222 0.061-0.476 0.095-0.739 0.095-0.009 0-0.018-0-0.027-0h0.001c-0.186 0-0.375-0.011-0.552-0.050 0.378 1.155 1.449 2.004 2.724 2.032-0.984 0.775-2.241 1.243-3.608 1.243-0.003 0-0.005 0-0.008 0h0c-0.011 0-0.025 0-0.039 0-0.232 0-0.461-0.015-0.686-0.043l0.027 0.003c1.256 0.82 2.794 1.308 4.446 1.308 0.009 0 0.019-0 0.028-0h-0.001c5.365 0 8.299-4.444 8.299-8.297 0-0.129-0.004-0.254-0.011-0.377 0.577-0.416 1.063-0.918 1.448-1.493l0.013-0.021z"></path>
</symbol>
<symbol id="icon-gal" viewBox="0 0 42 32">
<path  d="M6.263 15.205l-0.22-0.21-3.307 3.132 11.651 11.114 24.477-23.351-3.285-3.134-21.192 20.197-8.124-7.75z"></path>
</symbol>
<symbol id="icon-mail-modal" viewBox="0 0 43 32">
<path d="M37.333 0h-32c-2.2 0-3.98 1.8-3.98 4l-0.020 24c0 2.2 1.8 4 4 4h32c2.2 0 4-1.8 4-4v-24c0-2.2-1.8-4-4-4zM36.533 8.5l-14.14 8.84c-0.64 0.4-1.48 0.4-2.12 0l-14.14-8.84c-0.5-0.32-0.8-0.86-0.8-1.44 0-1.34 1.46-2.14 2.6-1.44l13.4 8.38 13.4-8.38c1.14-0.7 2.6 0.1 2.6 1.44 0 0.58-0.3 1.12-0.8 1.44z"></path>
</symbol>
<symbol id="icon-name" viewBox="0 0 38 32">
<path d="M19.2 12.8c3.536 0 6.4-2.864 6.4-6.4s-2.864-6.4-6.4-6.4c-3.536 0-6.4 2.864-6.4 6.4s2.864 6.4 6.4 6.4zM19.2 16c-4.272 0-12.8 2.144-12.8 6.4v1.6c0 0.88 0.72 1.6 1.6 1.6h22.4c0.88 0 1.6-0.72 1.6-1.6v-1.6c0-4.256-8.528-6.4-12.8-6.4z"></path>
</symbol>
<symbol id="icon-tel" viewBox="0 0 32 32">
<path d="M27.419 20.852l-4.202-0.48c-1.009-0.116-2.001 0.232-2.713 0.943l-3.044 3.044c-4.681-2.382-8.519-6.203-10.901-10.901l3.060-3.060c0.711-0.711 1.059-1.704 0.943-2.713l-0.48-4.168c-0.198-1.671-1.604-2.928-3.292-2.928h-2.862c-1.869 0-3.424 1.555-3.308 3.424 0.877 14.126 12.174 25.407 26.284 26.284 1.869 0.116 3.424-1.439 3.424-3.308v-2.862c0.016-1.671-1.241-3.077-2.911-3.275z"></path>
</symbol>
</defs>
</svg>
